<?xml version="1.0" encoding="utf-8"?>
<!-- Generator: Adobe Illustrator 16.0.3, SVG Export Plug-In . SVG Version: 6.00 Build 0)  -->
<!DOCTYPE svg PUBLIC "-//W3C//DTD SVG 1.1//EN" "http://www.w3.org/Graphics/SVG/1.1/DTD/svg11.dtd">
<svg version="1.1" id="Capa_1" xmlns="http://www.w3.org/2000/svg" xmlns:xlink="http://www.w3.org/1999/xlink" x="0px" y="0px"
	 width="101.058px" height="100.223px" viewBox="0 0 101.058 100.223" enable-background="new 0 0 101.058 100.223"
	 xml:space="preserve">
<g>
	<circle fill="#7B4BEF" cx="50.985" cy="49.495" r="46.106"/>
	<g>
		<path fill-rule="evenodd" clip-rule="evenodd" fill="#B945FA" stroke="#FFFFFF" stroke-miterlimit="10" d="M60.798,74.084
			c0.345-0.061,0.535-0.107,0.73-0.127c1.935-0.185,3.874-0.322,5.801-0.563c0.93-0.117,1.865-0.341,2.746-0.661
			c2.205-0.803,3.302-2.563,3.827-4.741c0.129-0.538,0.365-0.691,0.932-0.716c1.837-0.083,3.515-0.401,4.861-1.984
			c2.087-2.454,3.071-5.261,3.384-8.38c0.211-2.105-0.142-4.158-0.6-6.202c-0.939-4.191-3.107-7.78-5.454-11.297
			c-2.208-3.308-5.019-6.047-8.087-8.504c-4.738-3.794-10.274-5.564-16.283-5.91c-3.672-0.213-7.343-0.222-11.005,0.297
			c-3.37,0.478-6.646,1.294-9.859,2.393c-1.922,0.658-3.516,1.888-5.139,3.047c-4.361,3.118-7.663,7.012-8.983,12.356
			c-0.406,1.64-0.766,3.28-0.495,4.968c0.277,1.723,0.514,3.47,1.011,5.135c0.68,2.282,2.076,4.148,4.263,5.191
			c2.573,1.227,5.314,1.848,8.196,1.693c0.138-0.007,0.372,0.089,0.412,0.193c0.403,1.065,0.791,2.12,0.671,3.314
			c-0.233,2.318,0.816,3.994,2.868,4.977c4.161,1.992,8.465,2.741,12.965,1.203c0.345-0.117,0.53-0.068,0.729,0.265
			c0.64,1.074,1.551,1.843,2.717,2.321c0.37,0.151,0.74,0.356,1.039,0.618c2.657,2.327,5.036,4.906,6.986,7.86
			c0.243,0.367,0.541,0.5,0.938,0.474c0.909-0.059,1.752-0.331,2.497-0.86c0.709-0.504,0.837-0.951,0.483-1.752
			c-0.195-0.438-0.445-0.852-0.678-1.272c-0.362-0.655-0.765-1.29-1.083-1.966C60.997,75.051,60.936,74.587,60.798,74.084z"/>
		<g>
			<path fill="#7B4BEF" stroke="#FFFFFF" stroke-width="1.6" stroke-miterlimit="10" d="M34.416,66.998
				c0-1.061,8.542-12.548,8.542-12.548c2.444-2.708,6.635-9.191,6.635-9.191c1.66-6.029-4.676-5.269-4.676-5.269
				c-1.807,1.665-5.018,2.135-5.018,2.135c-4.026,4.985-12.92,8.406-12.92,8.406c-3.015,1.056-3.617,0-3.617,0
				c-1.361-1.054,1.208-4.519,1.208-4.519c7.687-7.389,10.097-17.037,10.097-17.037c-0.15-15.375,22.159-9.194,22.159-9.194
				c15.076,9.649,11.157,27.734,11.157,27.734c-0.604,1.811-1.357,5.579-1.357,5.579c-1.96,13.119,3.016,17.338,3.016,17.338
				s2.049,3.676-9.156,3.285l2.532,5.426c0,0,0.84,5.428-4.612,2.517c0,0-6.705-11.131-16.924-11.306
				c-10.22-0.176-8.107-1.662-8.107-1.662L34.416,66.998z"/>
			<g>
				<path fill="#7B4BEF" d="M34.038,32.48c0,0,0.753,1.171,2.003-0.836c0,0,2.333-2.161,1.997-0.493c0,0-0.515,2.579,0.034,3.748
					c0,0,1.217,1.331,1.217,1.747c0,0.421,0.166,1.915,3.334,1.502c0,0-0.5,1.668,0,1.834c0.499,0.161,0.499,0.161,0.499,0.161
					l-2.303,1.4"/>
				<path fill="#FFFFFF" d="M34.038,32.48c0.087,0.075,0.18,0.126,0.278,0.156c0.09,0.047,0.198,0.019,0.278,0.027l0.125-0.045
					c0.039-0.02,0.077-0.012,0.113-0.053l0.202-0.168l0.169-0.236c0.055-0.078,0.116-0.137,0.157-0.238l0.264-0.539l0.004-0.008
					l0.079-0.093c0.199-0.231,0.396-0.438,0.614-0.65c0.222-0.206,0.442-0.417,0.75-0.604c0.173-0.087,0.316-0.196,0.682-0.236
					c0.105-0.001,0.177-0.015,0.31,0.018c0.143,0.039,0.291,0.112,0.409,0.2c0.2,0.174,0.345,0.501,0.343,0.609
					c0.035,0.167,0.044,0.327,0.033,0.412l-0.021,0.296l-0.028,0.389c-0.051,0.524-0.06,1.048-0.042,1.547
					c0.028,0.239,0.028,0.496,0.075,0.696c0.024,0.096,0.022,0.237,0.062,0.295c0.031,0.073,0.058,0.146,0.075,0.224l-0.166-0.247
					c0.386,0.432,0.738,0.82,1.089,1.361c0.042,0.058,0.091,0.146,0.137,0.234c0.051,0.104,0.083,0.136,0.144,0.301
					c0.143,0.489,0.1,0.547,0.119,0.656c0.02,0.007-0.007,0.012,0.021,0.05c0.002,0.036,0.021,0.068,0.053,0.093
					c0.012,0.016,0.019,0.034,0.028,0.054c0.027,0.014,0.053,0.026,0.075,0.044c0.055,0.029,0.067,0.092,0.164,0.11
					c0.079,0.027,0.158,0.059,0.237,0.094c0.068,0.047,0.193,0.04,0.291,0.062c0.209,0.027,0.408,0.086,0.652,0.065l0.71,0.022
					l1.24,0.039l-0.396,0.955c-0.132,0.318-0.243,0.708-0.305,1.006l-0.031,0.178c-0.003,0.017-0.006,0.034-0.018,0.016
					c-0.007,0.012-0.038-0.057-0.088-0.075c-0.027-0.026-0.064-0.045-0.102-0.053c-0.053-0.01,0.026,0.017,0.032,0.022l0.14,0.065
					l0.281,0.132l1.088,0.508l-0.981,0.404c-0.841,0.347-1.677,0.7-2.565,0.969c0.647-0.665,1.346-1.245,2.041-1.832l0.107,0.912
					l-0.304-0.058l-0.152-0.029c-0.041-0.012-0.015,0.007-0.111-0.03c-0.082-0.033-0.163-0.078-0.235-0.13
					c-0.113-0.097-0.22-0.24-0.255-0.329c-0.056-0.112-0.078-0.195-0.101-0.278c-0.041-0.167-0.054-0.303-0.063-0.436
					c-0.019-0.262,0.003-0.495,0.027-0.725c0.027-0.232,0.057-0.441,0.108-0.684l0.845,0.993l-0.865,0.129
					c-0.281,0.052-0.606,0.02-0.92,0.008c-0.162-0.017-0.308,0.003-0.486-0.054l-0.517-0.138c-0.168-0.03-0.354-0.159-0.53-0.256
					c-0.18-0.093-0.344-0.226-0.493-0.406c-0.161-0.16-0.288-0.344-0.379-0.558c-0.109-0.19-0.169-0.451-0.213-0.699
					c-0.013-0.095-0.012-0.14-0.019-0.211l-0.004-0.085l-0.005,0.025c-0.002,0.017-0.003,0.034-0.002,0.052
					c0.001,0.035,0.01,0.069,0.025,0.1c0.021,0.04-0.026-0.036-0.033-0.05c-0.015-0.027-0.027-0.056-0.064-0.104
					c-0.232-0.335-0.563-0.75-0.876-1.104l-0.128-0.145l-0.037-0.103c-0.068-0.188-0.126-0.381-0.181-0.573
					c-0.067-0.203-0.055-0.35-0.084-0.526c-0.054-0.351-0.032-0.653-0.025-0.972c0.044-0.616,0.123-1.206,0.243-1.785l0.11-0.437
					c0.02-0.078,0.02-0.075,0.034-0.118c0.019-0.054,0.012-0.032,0.026-0.004c0.005-0.036,0.052,0.178,0.18,0.236
					c0.055,0.058,0.14,0.101,0.22,0.109c0.069,0.008,0.066,0.014,0.104,0.008c0.086-0.027-0.031-0.014-0.109,0.015
					c-0.396,0.14-0.893,0.442-1.32,0.731l0.083-0.101l-0.503,0.517c-0.073,0.088-0.192,0.158-0.292,0.231
					c-0.104,0.073-0.206,0.142-0.314,0.202c-0.131,0.046-0.26,0.086-0.384,0.12c-0.057,0.026-0.137,0.008-0.203,0.008l-0.2-0.018
					c-0.12-0.063-0.249-0.102-0.326-0.201C34.147,32.682,34.081,32.581,34.038,32.48z"/>
			</g>
			<g>
				<path fill="#7B4BEF" d="M32.208,39.397c0,0,0.287-2.625,3.249-3.363"/>
				<path fill="#FFFFFF" d="M32.208,39.397c0.005-0.001-0.036-0.08-0.057-0.228c-0.029-0.15-0.038-0.366-0.007-0.618
					c0.006-0.131,0.04-0.265,0.084-0.403c0.046-0.138,0.076-0.298,0.156-0.438c0.158-0.278,0.32-0.596,0.583-0.828l0.386-0.346
					c0.129-0.111,0.298-0.163,0.437-0.242c0.142-0.075,0.289-0.131,0.423-0.185c0.128-0.068,0.28-0.057,0.404-0.078
					c0.511-0.059,0.84,0.002,0.84,0.002s-0.253,0.271-0.617,0.526c-0.086,0.074-0.198,0.117-0.284,0.213
					c-0.091,0.088-0.183,0.182-0.287,0.26c-0.212,0.155-0.405,0.345-0.587,0.548c-0.224,0.163-0.352,0.409-0.549,0.589
					c-0.154,0.207-0.323,0.401-0.454,0.583C32.396,39.14,32.208,39.397,32.208,39.397z"/>
			</g>
			<g>
				<path fill="#7B4BEF" d="M33.375,39.397c0,0,2.335,0.746,2.499-2.916"/>
				<path fill="#FFFFFF" d="M33.375,39.397c0,0,0.324-0.074,0.662-0.236c0.083-0.042,0.168-0.091,0.249-0.144
					c0.083-0.049,0.154-0.12,0.229-0.179c0.134-0.144,0.281-0.278,0.384-0.479c0.13-0.176,0.229-0.395,0.332-0.606
					c0.113-0.207,0.187-0.431,0.292-0.614c0.164-0.382,0.351-0.657,0.351-0.657c0,0,0.151,0.285,0.217,0.74
					c0.019,0.228,0.047,0.498-0.019,0.788c-0.039,0.292-0.155,0.603-0.335,0.894c-0.089,0.144-0.21,0.273-0.335,0.396
					c-0.121,0.125-0.283,0.21-0.427,0.288c-0.303,0.152-0.625,0.173-0.871,0.142C33.599,39.662,33.375,39.397,33.375,39.397z"/>
			</g>
			<path fill="#7B4BEF" d="M33.375,38.562c0,0,0.333-1.081,2.082-1.41C35.457,37.151,34.625,39.729,33.375,38.562z"/>
			<path fill="#7B4BEF" stroke="#FFFFFF" stroke-miterlimit="10" d="M32.208,37.151"/>
			<path fill="#7B4BEF" stroke="#FFFFFF" stroke-miterlimit="10" d="M43.771,27.09c0,0,0.159-2.415,1.947-2.607
				c1.79-0.186,1.383,1.634,0.913,1.762C46.63,26.244,45.938,26.965,43.771,27.09z"/>
			<g>
				<path fill="#7B4BEF" d="M44.022,27.655c0,0,3.203-0.124,3.613-2.008"/>
				<path fill="#FFFFFF" d="M44.022,27.655c0,0,0.267-0.179,0.64-0.357c0.375-0.186,0.857-0.385,1.303-0.582
					c0.232-0.084,0.435-0.2,0.637-0.291c0.092-0.056,0.183-0.105,0.279-0.152c0.076-0.06,0.16-0.11,0.244-0.16
					c0.133-0.117,0.281-0.22,0.357-0.316c0.097-0.095,0.153-0.148,0.153-0.148s0.021,0.072,0.036,0.212
					c0.025,0.144,0,0.339-0.074,0.58c-0.088,0.229-0.244,0.481-0.466,0.689c-0.115,0.09-0.224,0.216-0.361,0.284
					c-0.133,0.078-0.268,0.16-0.408,0.22c-0.568,0.241-1.169,0.289-1.611,0.229C44.308,27.812,44.022,27.655,44.022,27.655z"/>
			</g>
			<g>
				<path fill="#7B4BEF" d="M43.123,26.759c0.021-0.045-0.231-1.017,0.899-1.899"/>
				<path fill="#FFFFFF" d="M43.123,26.759c0,0-0.037-0.039-0.102-0.106c-0.063-0.05-0.135-0.12-0.188-0.253
					c-0.056-0.122-0.091-0.278-0.084-0.44c0.005-0.165,0.048-0.337,0.125-0.489c0.152-0.312,0.441-0.522,0.694-0.582
					c0.251-0.07,0.455-0.028,0.455-0.028s0.001,0.228-0.051,0.437c-0.03,0.104-0.053,0.22-0.085,0.325
					c-0.035,0.106-0.089,0.197-0.12,0.297c-0.066,0.084-0.097,0.179-0.167,0.261c-0.061,0.085-0.125,0.17-0.196,0.253
					c-0.063,0.073-0.135,0.175-0.186,0.245C43.163,26.737,43.121,26.756,43.123,26.759z"/>
			</g>
			<g>
				<path fill="#7B4BEF" d="M34.625,45.469c0,0,2.724-1.311,6.856-7.249"/>
				<path fill="#FFFFFF" d="M34.625,45.469c0,0,0.113-0.118,0.319-0.31c0.209-0.19,0.455-0.512,0.781-0.836
					c0.16-0.166,0.33-0.345,0.519-0.52c0.171-0.205,0.344-0.431,0.538-0.646c0.374-0.443,0.798-0.889,1.221-1.335
					c0.228-0.207,0.427-0.444,0.613-0.688c0.187-0.241,0.393-0.46,0.581-0.682c0.383-0.438,0.758-0.836,1.096-1.166
					c0.667-0.668,1.189-1.068,1.189-1.068s-0.246,0.592-0.73,1.413c-0.238,0.414-0.535,0.886-0.872,1.377
					c-0.348,0.484-0.676,1.033-1.135,1.483c-0.455,0.45-0.908,0.903-1.356,1.301c-0.218,0.205-0.439,0.391-0.65,0.565
					c-0.234,0.159-0.463,0.298-0.672,0.423c-0.421,0.248-0.761,0.456-1.022,0.549C34.78,45.424,34.625,45.469,34.625,45.469z"/>
			</g>
			<g>
				<path fill="#7B4BEF" d="M42.03,38.204c0,0-1.721,3.248-2.13,3.34"/>
				<path fill="#FFFFFF" d="M42.03,38.204c0,0,0.031,0.299-0.046,0.685c-0.07,0.39-0.242,0.87-0.496,1.308
					c-0.26,0.433-0.6,0.825-0.933,1.069c-0.161,0.124-0.322,0.21-0.45,0.252c-0.124,0.049-0.218,0.021-0.206,0.026
					c0.031-0.004,0.09-0.25,0.191-0.615c0.104-0.362,0.29-0.816,0.536-1.24c0.252-0.421,0.566-0.81,0.856-1.075
					C41.766,38.346,42.03,38.204,42.03,38.204z"/>
			</g>
			<g>
				<path fill="#7B4BEF" d="M27.739,48.872c0,0,2.862-1.336,3.953-2.615"/>
				<path fill="#FFFFFF" d="M27.739,48.872c0,0,0.199-0.277,0.533-0.588c0.335-0.313,0.801-0.673,1.291-0.979
					c0.495-0.302,0.995-0.569,1.409-0.747c0.384-0.194,0.72-0.301,0.72-0.301s-0.02,0.079-0.073,0.212
					c-0.055,0.129-0.135,0.327-0.273,0.525c-0.14,0.189-0.318,0.408-0.533,0.608c-0.215,0.193-0.464,0.383-0.72,0.549
					c-0.524,0.32-1.096,0.547-1.556,0.64C28.08,48.897,27.739,48.872,27.739,48.872z"/>
			</g>
			<path fill="#7B4BEF" d="M46.736,25.187c0,0.176-0.132,0.318-0.293,0.318c-0.163,0-0.296-0.143-0.296-0.318
				c0-0.181,0.133-0.327,0.296-0.327C46.604,24.859,46.736,25.006,46.736,25.187z"/>
			<g>
				<path fill="#7B4BEF" d="M44.25,25.505c0,0-0.483,0.843,0.724,1.147"/>
				<path fill="#FFFFFF" d="M44.25,25.505c0,0,0.095,0.174,0.202,0.289c0.052,0.062,0.111,0.104,0.149,0.127
					c0.051,0.015,0.056,0.03,0.09,0.041c-0.012,0.03,0.044,0.059,0.058,0.124c0.013,0.065,0.061,0.136,0.097,0.215
					c0.072,0.152,0.127,0.352,0.127,0.352s-0.133,0.131-0.345,0.181c-0.106,0.029-0.229,0.049-0.362-0.011
					c-0.136-0.046-0.268-0.109-0.377-0.263c-0.107-0.141-0.162-0.315-0.154-0.486c-0.013-0.081,0.031-0.153,0.052-0.22
					c0.022-0.065,0.058-0.122,0.102-0.164C44.044,25.506,44.25,25.505,44.25,25.505z"/>
			</g>
			<g>
				<path fill="#7B4BEF" d="M43.833,26.691c0,0-0.144,0.515,0.253,0.37"/>
				<path fill="#FFFFFF" d="M43.833,26.691c0,0,0.151,0.087,0.265,0.132c0.063,0.025,0.112,0.052,0.15,0.05
					c0.04,0.014,0.052-0.019,0.043-0.064c-0.01-0.001-0.038-0.066-0.077-0.094c-0.036-0.038-0.095-0.033-0.126-0.042
					c-0.037-0.008-0.079,0.014-0.105,0.039c-0.036,0.026-0.014,0.052-0.015,0.083c0.016,0.113,0.117,0.267,0.117,0.267
					s0.027,0.168-0.069,0.305c-0.029,0.033-0.037,0.078-0.104,0.089c-0.058,0.018-0.133,0.029-0.205,0.012
					c-0.139,0.003-0.306-0.19-0.346-0.293c-0.032-0.118-0.036-0.226,0.008-0.283c0.033-0.073,0.094-0.113,0.162-0.145
					C43.662,26.678,43.833,26.691,43.833,26.691z"/>
			</g>
			<g>
				<path fill="#7B4BEF" d="M37.449,29.517c0,0-0.765-0.768,0-1.207"/>
				<path fill="#FFFFFF" d="M37.449,29.517c0,0-0.182,0.059-0.374-0.011c-0.099-0.025-0.198-0.084-0.279-0.177
					c-0.095-0.076-0.135-0.234-0.177-0.372c0.008-0.162,0.008-0.351,0.119-0.474c0.101-0.125,0.21-0.234,0.33-0.232
					c0.229-0.038,0.381,0.059,0.381,0.059s0.012,0.21,0.033,0.34c-0.007,0.069,0.068,0.129,0.08,0.145
					c-0.002,0.006,0.035,0.021,0.038,0.024c0.009,0.006,0.007,0.005,0.011,0.014c0.01,0.033-0.014,0.059-0.018,0.128
					c-0.013,0.061-0.031,0.137-0.05,0.219C37.487,29.381,37.449,29.517,37.449,29.517z"/>
			</g>
			<g>
				<g>
					<path fill="#7B4BEF" d="M51.572,39.875c0,0,0.972,1.703,3.098,1.278"/>
					<path fill="#FFFFFF" d="M51.572,39.875c0,0,0.254,0.108,0.553,0.238c0.146,0.071,0.322,0.131,0.478,0.217
						c0.182,0.044,0.325,0.172,0.509,0.205c0.167,0.075,0.334,0.151,0.506,0.198c0.085,0.023,0.167,0.065,0.249,0.104
						c0.08,0.044,0.163,0.05,0.239,0.079c0.305,0.091,0.564,0.237,0.564,0.237s-0.186,0.187-0.546,0.337
						c-0.177,0.099-0.4,0.111-0.646,0.113c-0.12-0.01-0.255,0.019-0.376-0.026l-0.374-0.119c-0.494-0.194-0.863-0.601-1.018-0.95
						C51.537,40.161,51.572,39.875,51.572,39.875z"/>
				</g>
				<g>
					<path fill="#7B4BEF" d="M55.585,40.845c0,0,0.302,0.378,0.85-0.301"/>
					<path fill="#FFFFFF" d="M55.585,40.845c0.001,0.009,0.181-0.068,0.226-0.185c0.029-0.063,0.021-0.115,0.014-0.154
						c-0.023-0.026-0.003-0.063-0.003-0.063c0.022-0.001,0.054-0.023,0.107-0.006c0.05,0.014,0.118,0.005,0.191,0.024
						c0.139,0.025,0.315,0.083,0.315,0.083s0.089,0.151,0.097,0.316c0.004,0.085,0.009,0.175-0.042,0.254
						c-0.045,0.085-0.111,0.149-0.199,0.21c-0.121,0.037-0.211,0.086-0.357,0.054c-0.128-0.015-0.245-0.09-0.31-0.178
						C55.489,41.016,55.583,40.835,55.585,40.845z"/>
				</g>
				<g>
					<path fill="#7B4BEF" d="M48.28,38.637c0,0,0.648,0.208,1.269,0.035"/>
					<path fill="#FFFFFF" d="M48.28,38.637c0,0,0.132-0.131,0.26-0.233c0.129-0.1,0.259-0.169,0.391-0.172
						c0.132,0.022,0.247,0.074,0.372,0.187c0.12,0.104,0.247,0.254,0.247,0.254s-0.032,0.174-0.15,0.313
						c-0.057,0.073-0.135,0.139-0.224,0.186c-0.091,0.063-0.184,0.05-0.28,0.06c-0.095-0.015-0.19-0.027-0.273-0.075
						c-0.085-0.051-0.159-0.119-0.211-0.194C48.3,38.822,48.28,38.637,48.28,38.637z"/>
				</g>
				<g>
					<path fill="#7B4BEF" d="M49.192,38.22c0,0,0.477,0.39,1.152,0.268"/>
					<path fill="#FFFFFF" d="M49.192,38.22c-0.005-0.007,0.171-0.074,0.31-0.146c0.135-0.064,0.25-0.118,0.354-0.1
						c0.095,0.05,0.185,0.098,0.284,0.23c0.095,0.118,0.204,0.283,0.204,0.283s-0.043,0.168-0.175,0.291
						c-0.064,0.066-0.15,0.121-0.245,0.156c-0.046,0.009-0.1,0.049-0.147,0.032l-0.148-0.02c-0.095-0.036-0.19-0.07-0.262-0.136
						c-0.075-0.069-0.132-0.163-0.162-0.25C49.137,38.396,49.201,38.22,49.192,38.22z"/>
				</g>
				<g>
					<path fill="#7B4BEF" d="M50.021,38.204c0,0,0.621,0.3,1.357,0.162"/>
					<path fill="#FFFFFF" d="M50.021,38.204c0,0,0.156-0.108,0.301-0.195c0.143-0.082,0.286-0.141,0.428-0.13
						c0.136,0.039,0.263,0.09,0.388,0.215c0.121,0.112,0.241,0.272,0.241,0.272s-0.053,0.171-0.191,0.3
						c-0.067,0.069-0.155,0.128-0.253,0.168c-0.048,0.014-0.102,0.052-0.151,0.041l-0.155-0.004
						c-0.102-0.025-0.203-0.048-0.289-0.104c-0.088-0.058-0.163-0.139-0.212-0.221C50.021,38.394,50.021,38.204,50.021,38.204z"/>
				</g>
				<g>
					<path fill="#7B4BEF" d="M51.378,38.008c0,0,0.382,0.268,1.242-0.035"/>
					<path fill="#FFFFFF" d="M51.378,38.008c-0.009-0.003,0.175-0.093,0.276-0.204c0.052-0.055,0.081-0.095,0.147-0.137
						c0.056-0.044,0.109-0.052,0.163-0.06c0.051,0.021,0.121-0.007,0.186,0.025c0.066,0.02,0.135,0.059,0.203,0.108
						c0.132,0.092,0.267,0.231,0.267,0.231s-0.02,0.177-0.12,0.324s-0.26,0.294-0.467,0.308c-0.217-0.01-0.41-0.069-0.559-0.259
						C51.339,38.188,51.388,38.009,51.378,38.008z"/>
				</g>
				<g>
					<path fill="#7B4BEF" d="M52.5,37.714c0,0,1.119,0.065,1.477-0.256"/>
					<path fill="#FFFFFF" d="M52.5,37.714c0,0,0.105-0.162,0.238-0.281c0.135-0.127,0.306-0.215,0.465-0.239
						c0.166-0.014,0.312,0.034,0.459,0.115c0.077,0.04,0.131,0.074,0.201,0.104c0.073,0.029,0.114,0.046,0.114,0.046
						s0.01,0.043,0.003,0.115c-0.005,0.064-0.04,0.188-0.101,0.268c-0.055,0.084-0.152,0.184-0.246,0.233
						c-0.094,0.061-0.21,0.095-0.314,0.112c-0.219,0.023-0.43-0.056-0.581-0.182C52.585,37.887,52.5,37.714,52.5,37.714z"/>
				</g>
				<g>
					<path fill="#7B4BEF" d="M53.977,37.017c0,0,0.381,0.087,0.943-0.031"/>
					<path fill="#FFFFFF" d="M53.977,37.017c0,0,0.081-0.159,0.185-0.268c0.115-0.104,0.216-0.205,0.301-0.222
						c0.087-0.009,0.178,0.066,0.271,0.187c0.091,0.112,0.186,0.271,0.186,0.271s-0.023,0.17-0.109,0.298
						c-0.083,0.135-0.229,0.23-0.377,0.243c-0.073-0.006-0.146-0.01-0.209-0.048c-0.067-0.029-0.1-0.097-0.139-0.162
						C54.013,37.188,53.977,37.017,53.977,37.017z"/>
				</g>
			</g>
		</g>
	</g>
</g>
</svg>
