<?xml version="1.0" encoding="utf-8"?>
<!-- Generator: Adobe Illustrator 16.0.3, SVG Export Plug-In . SVG Version: 6.00 Build 0)  -->
<!DOCTYPE svg PUBLIC "-//W3C//DTD SVG 1.1//EN" "http://www.w3.org/Graphics/SVG/1.1/DTD/svg11.dtd">
<svg version="1.1" xmlns="http://www.w3.org/2000/svg" xmlns:xlink="http://www.w3.org/1999/xlink" x="0px" y="0px"
	 width="97.987px" height="125.51px" viewBox="0 0 97.987 125.51" enable-background="new 0 0 97.987 125.51" xml:space="preserve">
<g id="Capa_1">
	<g>
		<g>
			<circle fill="#005E55" cx="45.215" cy="63.418" r="40.967"/>
			<g>
				<rect x="29.124" y="59.742" stroke="#000000" stroke-width="2" stroke-miterlimit="10" width="1.232" height="3.672"/>
				<polygon points="19.727,65.525 29.74,63.166 39.752,65.525 39.752,66.438 19.727,66.438 				"/>
				<polygon fill="#FFB640" points="39.674,65.508 39.752,65.525 39.752,66.438 19.727,66.438 19.727,65.525 19.806,65.508 				"/>
				<path d="M9.516,22.66l0.921,1.006c-2.352,3.527-3.779,7.662-3.922,12.09C6.1,48.648,16.685,59.1,30.159,59.1
					c3.786,0,7.393-0.832,10.637-2.307l0.922,1.006c-3.605,2.104-7.795,3.313-12.271,3.313c-13.473,0-24.395-10.922-24.395-24.393
					C5.053,31.482,6.708,26.635,9.516,22.66z"/>
				<g>
					<circle fill="#F7BD01" stroke="#000000" stroke-miterlimit="10" cx="29.959" cy="35.645" r="22.419"/>
					<g>
						<g>
							<g>
								<path fill="#4880AA" d="M27.566,43.826c0.128-0.135,0.278-0.197,0.442-0.27c0.093-0.049,0.188-0.23,0.277-0.404
									c0.073-0.141,0.148-0.281,0.235-0.406c0.19-0.27,0.434-0.461,0.649-0.629c0.215-0.17,0.401-0.316,0.503-0.506
									c0.251-0.467-0.011-1.143-0.301-1.742l-0.123-0.254l0.668-0.928c0.032-0.043,0.063-0.088,0.096-0.129
									c-0.194-0.057-0.388-0.137-0.576-0.254c-0.113-0.07-0.22-0.154-0.327-0.236c-0.078-0.061-0.155-0.123-0.239-0.176
									c-0.197-0.123-0.447-0.193-0.714-0.268c-0.717-0.199-1.461-0.406-2.172-0.324c-0.418,0.047-0.853,0.199-1.274,0.346
									l-1.454,0.51c-0.492,0.172-0.958,0.334-1.385,0.582c-0.222,0.127-0.433,0.277-0.645,0.426
									c-0.251,0.178-0.504,0.354-0.77,0.502c-0.29,0.162-0.596,0.291-0.901,0.416c-0.408,0.172-0.795,0.332-1.122,0.578
									c-0.014,0.01-0.027,0.02-0.036,0.025c0.024,0.027,0.065,0.066,0.131,0.125c0.404,0.348,0.544,0.797,0.363,1.168
									c-0.055,0.115-0.128,0.195-0.188,0.225c0,0.033,0.033,0.133,0.047,0.176c0.47,1.43,0.522,3.045,0.145,4.549
									c-0.014,0.057-0.036,0.145-0.041,0.15c0.012,0.021,0.068,0.072,0.087,0.088c0.647,0.588,1.378,1.043,2.17,1.35
									c0.134,0.053,0.27,0.102,0.406,0.15c0.414,0.146,0.842,0.299,1.243,0.563c0.889,0.582,1.423,1.563,1.789,2.354
									c0.204,0.439,0.403,0.922,0.479,1.459c0.033,0.24-0.001,0.525-0.039,0.828c-0.028,0.225-0.075,0.602-0.092,0.652
									c0.108,0.043,0.488-0.074,0.671-0.219c0.324-0.254,0.562-0.719,0.655-1.275c0.095-0.572,0.039-1.184-0.021-1.711
									l-0.068-0.561c-0.153-1.221-0.311-2.482,0.003-3.723c0.123-0.479,0.292-0.82,0.535-1.078
									c0.066-0.066,0.136-0.129,0.207-0.189c0.073-0.061,0.135-0.115,0.172-0.166c0.055-0.076,0.097-0.172,0.141-0.264
									c0.063-0.131,0.143-0.299,0.258-0.443C27.272,44.49,27.306,44.102,27.566,43.826z"/>
							</g>
							<g>
								<path fill="#4880AA" d="M46.596,28.424l0.139,0.098c0.345,0.236,0.715,0.416,1.101,0.537
									c0.221,0.068,0.361,0.086,0.461,0.051l0,0c0.064-0.023,0.146-0.08,0.234-0.143l0.013-0.008
									c-0.547-1.105-1.177-2.133-1.876-3.063c-1.369-0.486-2.767-0.811-4.157-0.971l-0.227-0.023l-0.128-0.188
									c-0.167-0.246-0.557-0.229-1.136-0.172c-0.116,0.012-0.23,0.023-0.341,0.031c-1.155,0.072-2.198-0.395-3.208-0.844
									c-0.456-0.203-0.885-0.395-1.323-0.539c-0.755-0.25-1.56-0.363-2.356-0.451c0.011,0.025,0.024,0.055,0.041,0.082
									l0.097,0.162c0.124,0.197,0.279,0.443,0.321,0.754c0.042,0.303-0.069,0.623-0.278,0.832c0.022,0.123,0.027,0.25,0.011,0.385
									c-0.05,0.439-0.303,0.842-0.659,1.053c-0.476,0.279-1.076,0.285-1.79,0.016c-0.115-0.043-0.384-0.145-0.522-0.426
									c-0.096-0.191-0.085-0.383-0.079-0.498l0.045-0.832c-0.389-0.324-0.903-0.477-1.386-0.402
									c-0.869,0.133-1.612,0.91-2.361,1.764l-1.408,1.611l0.852,1.1c0.265,0.342,0.594,0.768,0.965,0.883
									c0.122,0.035,0.269,0.049,0.426,0.064c0.171,0.014,0.341,0.033,0.508,0.07c0.488,0.115,1.005,0.496,1.06,1.092
									c0.005,0.057,0.005,0.117-0.022,0.203c0.018,0.018,0.081,0.053,0.115,0.072c0.45,0.248,0.883,0.549,1.284,0.893
									c0.258,0.223,0.54,0.5,0.691,0.887c0.042,0.107,0.072,0.227,0.087,0.352c0.246-0.068,0.511-0.121,0.793-0.109
									c0.414,0.021,0.855,0.238,1.125,0.584c0.238,0.305,0.322,0.666,0.237,1.018c-0.088,0.361-0.329,0.607-0.506,0.787
									c-0.261,0.266-0.887,0.9-1.619,0.85l-0.787,1.197c0.025,0.021,0.052,0.045,0.076,0.07c0.111,0.113,0.2,0.246,0.264,0.383
									c0.223-0.113,0.43-0.264,0.61-0.445l0.146-0.1c1.044-0.447,2.177-0.602,3.32-0.439c0.415,0.059,0.719,0.088,0.846-0.066
									c0.043-0.055,0.086-0.148,0.13-0.246c0.076-0.174,0.172-0.389,0.359-0.559c0.185-0.17,0.395-0.236,0.563-0.291
									c0.048-0.016,0.095-0.031,0.141-0.049c0.268-0.107,0.517-0.396,0.736-0.648l2.559-2.938c0.191-0.221,0.371-0.43,0.501-0.662
									c0.05-0.09,0.094-0.186,0.138-0.281c0.054-0.117,0.108-0.232,0.17-0.344c0.4-0.717,1.037-1.121,1.653-1.51
									c0.301-0.189,0.586-0.371,0.836-0.582l0.108-0.094c0.208-0.184,0.444-0.391,0.772-0.479
									c0.186-0.049,0.365-0.051,0.537-0.023C45.924,27.951,46.3,28.215,46.596,28.424z"/>
							</g>
							<g>
								<path fill="#4880AA" d="M31.245,19.75c0.051-0.008,0.104-0.016,0.155-0.023c-1.517-0.482-3.884-1.121-6.084-1.67
									c-1.909,0.516-3.693,1.297-5.311,2.326c0.256,0.254,0.589,0.461,0.937,0.678c0.229,0.143,0.459,0.285,0.673,0.443
									c0.199,0.148,0.398,0.318,0.598,0.488c0.732,0.627,1.219,0.996,1.822,0.842c0.496-0.123,0.871-0.287,1.099-0.689
									c0.055-0.098,0.102-0.211,0.15-0.324c0.168-0.396,0.376-0.889,0.917-1.072c0.236-0.078,0.459-0.064,0.636-0.051
									c0.069,0.004,0.137,0.01,0.204,0.006c0.139-0.012,0.307-0.088,0.485-0.17l0.134-0.061c0.903-0.4,1.856-0.512,2.777-0.619
									C30.707,19.822,30.977,19.789,31.245,19.75L31.245,19.75z"/>
							</g>
						</g>
						<g>
							<path fill="#FFFFFF" d="M31.11,38.02c0.108-0.008,0.216-0.012,0.323-0.02c-0.397,0.002-0.794,0.178-1.086,0.48
								c-0.114,0.119-0.212,0.254-0.309,0.391c-0.17,0.234-0.34,0.473-0.51,0.709c0.343,0.707,0.685,1.582,0.308,2.283
								c-0.287,0.533-0.895,0.75-1.24,1.242c-0.238,0.338-0.359,0.813-0.708,1.002c-0.114,0.063-0.247,0.09-0.339,0.188
								c-0.238,0.252-0.013,0.678,0.21,0.936c-0.369-0.029-0.473,0.553-0.707,0.879c-0.121,0.17-0.298,0.277-0.439,0.426
								c-0.229,0.24-0.355,0.576-0.441,0.912c-0.354,1.402-0.084,2.881,0.083,4.318c0.074,0.641,0.127,1.297,0.02,1.939
								s-0.393,1.277-0.876,1.658c-0.303,0.238-1.166,0.574-1.429,0.125c-0.21-0.357,0.086-1.338,0.022-1.791
								c-0.069-0.492-0.256-0.949-0.46-1.389c-0.41-0.887-0.923-1.754-1.693-2.258c-0.503-0.33-1.084-0.482-1.638-0.699
								c-0.889-0.346-1.718-0.863-2.444-1.52c-0.101-0.092-0.204-0.193-0.238-0.332c-0.035-0.139,0.004-0.289,0.04-0.428
								c0.373-1.486,0.321-3.078-0.143-4.496c-0.056-0.168-0.114-0.361-0.033-0.52c0.052-0.104,0.155-0.168,0.206-0.271
								c0.109-0.227-0.075-0.477-0.254-0.629c-0.179-0.154-0.39-0.355-0.338-0.604c0.03-0.145,0.146-0.252,0.259-0.336
								c0.664-0.498,1.471-0.684,2.184-1.08c0.513-0.285,0.972-0.68,1.481-0.973c0.492-0.283,1.023-0.469,1.55-0.652
								c0.507-0.178,1.014-0.355,1.52-0.531c0.477-0.166,0.956-0.334,1.45-0.389c0.838-0.096,1.669,0.131,2.479,0.355
								c0.306,0.086,0.616,0.174,0.89,0.344c0.206,0.129,0.387,0.303,0.594,0.432c0.415,0.26,0.895,0.313,1.38,0.307
								c0,0.031,0.011,0.063,0.006,0.092C30.898,38.096,31.004,38.059,31.11,38.02z"/>
							<path fill="#FFFFFF" d="M49.139,28.941c-0.258,0.09-0.541,0.033-0.802-0.049c-0.456-0.145-0.894-0.357-1.297-0.635
								c-0.448-0.307-0.933-0.711-1.444-0.574c-0.284,0.076-0.507,0.309-0.739,0.504c-0.834,0.707-1.955,1.078-2.509,2.072
								c-0.119,0.211-0.205,0.445-0.323,0.656c-0.16,0.289-0.375,0.537-0.587,0.781c-0.892,1.025-1.786,2.053-2.682,3.084
								c-0.282,0.322-0.576,0.656-0.957,0.811c-0.202,0.082-0.429,0.113-0.595,0.268c-0.221,0.201-0.272,0.559-0.466,0.795
								c-0.331,0.402-0.907,0.307-1.392,0.236c-1.063-0.15-2.163,0.002-3.17,0.436c-0.308,0.309-0.674,0.543-1.066,0.693
								c-0.105,0.039-0.212,0.076-0.321,0.102c0.005-0.029-0.007-0.061-0.006-0.092c0.01-0.438-0.318-0.855-0.717-0.865
								c0.444-0.676,0.889-1.35,1.333-2.021c0.547,0.246,1.132-0.234,1.572-0.68c0.169-0.172,0.347-0.357,0.407-0.604
								c0.135-0.555-0.427-1.043-0.945-1.063c-0.52-0.021-1.015,0.24-1.53,0.33c0.229-0.217,0.257-0.611,0.14-0.914
								c-0.117-0.301-0.349-0.527-0.584-0.73c-0.393-0.336-0.815-0.629-1.261-0.877c-0.133-0.072-0.279-0.156-0.333-0.309
								c-0.041-0.119-0.016-0.25-0.027-0.377c-0.035-0.373-0.38-0.619-0.716-0.697c-0.335-0.08-0.689-0.051-1.02-0.154
								c-0.53-0.166-0.916-0.646-1.271-1.105c-0.306-0.396-0.612-0.791-0.917-1.188c-0.063-0.082-0.131-0.176-0.129-0.283
								c0.003-0.113,0.079-0.207,0.151-0.289c0.499-0.568,0.997-1.135,1.494-1.703c0.786-0.895,1.66-1.842,2.777-2.012
								c0.742-0.115,1.523,0.158,2.064,0.719c-0.02,0.365-0.04,0.734-0.06,1.102c-0.005,0.094-0.009,0.195,0.032,0.279
								c0.052,0.105,0.164,0.156,0.269,0.195c0.466,0.176,1.002,0.271,1.438,0.016s0.646-0.986,0.286-1.35
								c0.261,0.096,0.499-0.266,0.46-0.564c-0.041-0.299-0.239-0.535-0.382-0.791c-0.144-0.256-0.23-0.607-0.057-0.842
								c1.037,0.109,2.081,0.221,3.076,0.549c1.527,0.506,2.973,1.529,4.563,1.428c0.713-0.045,1.585-0.252,2.014,0.373
								c1.575,0.18,3.129,0.555,4.632,1.1c0.911,1.191,1.678,2.482,2.317,3.84c-0.075,0.035-0.155,0.055-0.226,0.102
								C49.47,28.748,49.318,28.877,49.139,28.941z"/>
							<path fill="#FFFFFF" d="M31.446,19.713c-1.223,0.178-2.489,0.213-3.638,0.723c-0.266,0.117-0.531,0.262-0.817,0.283
								c-0.254,0.02-0.516-0.059-0.76,0.023c-0.498,0.17-0.612,0.824-0.854,1.25c-0.33,0.584-0.87,0.809-1.461,0.957
								c-1.212,0.305-2.078-0.82-2.983-1.488c-0.729-0.537-1.646-0.906-2.115-1.684c1.899-1.281,4.028-2.23,6.289-2.824
								c2.614,0.648,7.078,1.832,8.132,2.387C32.649,19.5,32.05,19.625,31.446,19.713z"/>
						</g>
					</g>
				</g>
			</g>
			<g>
				<path fill="#EAC5A2" d="M81.64,66.998h-7.777c-3.96,0-3.96,9.799,0,9.799h7.777V66.998z"/>
				<path fill="#FFEBD4" d="M83.841,68.441h-7.777c-3.96,0-3.66,7.355,0.301,7.355l7.777-0.002L83.841,68.441z"/>
				<path fill="#EAC5A2" d="M77.792,76.246h7.777c3.959,0,2.159-8.254-1.8-8.254h-7.777L77.792,76.246z"/>
				<polygon fill="#EAC5A2" points="74.002,72.67 79.437,73.02 86.106,72.67 				"/>
				<path fill="#FF9945" d="M74.475,76.477c-3.96,0-3.96-9.029,0-9.029h9.43v-1.41H71.931c-4.404,0-4.403,11.721,0,11.721h11.974
					v-1.281H74.475z"/>
				<path fill="#A8CD5C" stroke="#000000" stroke-width="1.5" stroke-miterlimit="10" d="M72.312,66.117l-0.006-0.08l-51.568,0.014
					c-3.88,0-3.88,11.693,0,11.693h51.574v-0.066C68.562,77.678,68.562,66.117,72.312,66.117z"/>
				<path fill="#EAC5A2" d="M88.089,78.754H49.77c-4.048,0-4.048,10.281,0,10.281h38.319V78.754z"/>
				<path fill="#FFEBD4" d="M88.089,80.773H52.742c-3.734,0-3.734,7.252,0,7.252h35.347V80.773z"/>
				<polygon fill="#EAC5A2" points="87.658,79.141 76.553,79.141 78.754,88.885 89.858,88.885 				"/>
				<path fill="#A8CD5C" stroke="#000000" stroke-width="1.5" stroke-miterlimit="10" d="M50.076,77.678H23.299
					c-4.501,0-4.501,12.299,0,12.299h26.776C45.207,85.797,45.838,81.707,50.076,77.678z"/>
				<polygon fill="#EAC5A2" points="55.244,85.125 63.397,85.475 73.401,85.125 				"/>
				<polygon fill="#EAC5A2" points="62.397,82.273 70.55,82.623 80.554,82.273 				"/>
			</g>
			<g>
				<path fill="#594444" d="M87.985,18.182H47.886c-0.998,0-1.807,0.809-1.807,1.809v68.641c0,1,0.809,1.809,1.807,1.809h40.099
					c0.998,0,1.808-0.809,1.808-1.809V19.99C89.792,18.99,88.983,18.182,87.985,18.182z"/>
				<rect x="48.975" y="22.457" fill="#53C181" width="37.921" height="61.5"/>
				<rect x="58.977" y="30.529" fill="none" width="18.223" height="25.762"/>
				<text transform="matrix(1 0 0 1 58.9766 49.5752)" fill="#FFFFFF" font-family="'InkFree'" font-size="25.1617">C</text>
				<rect x="59.24" y="54.754" fill="none" width="18.222" height="25.76"/>
				<text transform="matrix(1 0 0 1 59.2402 73.7998)" fill="#FFFFFF" font-family="'InkFree'" font-size="25.1617">1</text>
			</g>
			<g>
				<g>
					
						<rect x="61.179" y="8.928" transform="matrix(0.9154 0.4026 -0.4026 0.9154 14.3603 -29.3937)" fill="#346FB7" stroke="#000000" stroke-linecap="round" stroke-linejoin="round" stroke-miterlimit="10" width="31.85" height="21.074"/>
					<polygon fill="#FFFEF3" points="95.924,16.23 92.72,14.822 82.165,16.348 84.438,11.18 79.496,9.006 77.243,14.125 
						71.456,5.469 66.769,3.408 65.591,6.086 70.673,13.686 63.615,10.58 61.544,15.287 68.46,18.328 59.646,19.604 58.285,22.699 
						62.341,24.482 73.39,22.887 71.01,28.297 75.954,30.471 78.311,25.109 84.37,34.172 87.439,35.521 89.07,31.814 84.882,25.553 
						90.699,28.111 92.769,23.404 87.087,20.904 94.329,19.857 					"/>
					<polygon fill="#FF5252" points="95.924,16.23 95.398,15.998 79.413,18.313 82.857,10.482 81.077,9.699 77.61,17.582 
						68.701,4.258 66.769,3.408 66.367,4.322 75.143,17.449 62.952,12.088 62.207,13.781 74.215,19.063 58.91,21.277 58.285,22.699 
						59.669,23.309 76.14,20.926 72.592,28.992 74.372,29.775 77.948,21.645 87.138,35.389 87.439,35.521 88.298,33.57 
						80.426,21.795 91.362,26.604 92.107,24.91 81.339,20.174 95.063,18.189 					"/>
				</g>
				<polygon fill="#594444" points="66.857,2.738 49.295,38.432 49.295,41.85 67.561,2.939 				"/>
			</g>
		</g>
		<g>
			<path stroke="#000000" stroke-miterlimit="10" d="M30.527,103.956c-0.353,0.195-0.904,0.404-1.654,0.625
				c-0.75,0.223-1.367,0.379-1.849,0.471c-0.757,0.143-1.517,0.258-2.28,0.342c-0.763,0.086-1.256,0.135-1.478,0.146
				c0.013,0.758,0.033,1.537,0.059,2.34c0.026,0.801,0.045,1.354,0.059,1.652c0.509-0.064,1.271-0.188,2.289-0.371l0.744-0.117
				c0.821-0.145,1.454-0.404,1.898-0.783c0.235-0.182,0.404-0.273,0.509-0.273c0.091,0,0.167,0.049,0.225,0.146
				s0.088,0.199,0.088,0.303c0,0.234-0.264,0.492-0.792,0.773s-1.112,0.486-1.751,0.617c-0.535,0.117-1.135,0.229-1.8,0.332
				s-1.103,0.17-1.311,0.195c0.078,2.23,0.307,3.889,0.685,4.971c0.378,0.131,0.75,0.225,1.116,0.283
				c0.365,0.059,0.834,0.088,1.409,0.088s1.122-0.074,1.644-0.225s0.942-0.336,1.262-0.557c0.319-0.223,0.479-0.432,0.479-0.627
				c0-0.104-0.02-0.205-0.059-0.303s-0.092-0.199-0.157-0.305c-0.026-0.039-0.068-0.1-0.127-0.186
				c-0.059-0.084-0.088-0.152-0.088-0.205c0-0.131,0.144-0.195,0.431-0.195c0.208,0,0.388,0.088,0.538,0.264
				c0.15,0.176,0.225,0.369,0.225,0.578c0,0.418-0.186,0.828-0.558,1.232c-0.372,0.404-0.88,0.734-1.526,0.988
				c-0.646,0.254-1.359,0.381-2.143,0.381c-0.796,0-1.448-0.043-1.957-0.127s-0.894-0.252-1.154-0.498
				c-0.313-0.354-0.532-0.967-0.655-1.84c-0.125-0.875-0.232-2.041-0.323-3.504c-0.248,0.066-0.525,0.121-0.832,0.168
				c-0.307,0.045-0.539,0.068-0.695,0.068s-0.284-0.049-0.382-0.148c-0.098-0.098-0.146-0.217-0.146-0.361
				c0-0.092,0.016-0.17,0.049-0.234c0.032-0.064,0.081-0.105,0.146-0.117c0.431-0.053,0.744-0.086,0.939-0.098l0.842-0.098
				c-0.053-1.684-0.104-3.053-0.157-4.111c-0.196,0-0.352,0.008-0.469,0.021l-0.9,0.02c-0.118,0-0.209-0.033-0.274-0.1
				c-0.065-0.064-0.098-0.137-0.098-0.215c0-0.313,0.209-0.521,0.626-0.625c0.157-0.027,0.355-0.057,0.597-0.088
				c0.241-0.033,0.401-0.051,0.479-0.051c0.248-0.273,0.522-0.41,0.822-0.41c0.052,0,0.095,0.043,0.127,0.127
				c0.033,0.086,0.049,0.146,0.049,0.186c0.861-0.039,1.885-0.137,3.072-0.293c0.783-0.104,1.989-0.352,3.621-0.744l0.724-0.156
				c0.13,0,0.196,0.078,0.196,0.234C30.86,103.702,30.749,103.839,30.527,103.956z"/>
			<path stroke="#000000" stroke-miterlimit="10" d="M38.824,116.567c-0.13,0.111-0.287,0.166-0.47,0.166
				c-0.13,0-0.241-0.029-0.333-0.088s-0.137-0.139-0.137-0.244c0-0.535,0.039-1.363,0.118-2.484
				c0.078-1.201,0.118-2.199,0.118-2.994c0-0.77-0.023-1.4-0.069-1.889c-0.046-0.49-0.153-0.734-0.323-0.734
				c-0.444,0-0.93,0.551-1.458,1.654c-0.528,1.102-1.132,2.553-1.81,4.354l-0.293,0.783c-0.053,0.131-0.141,0.234-0.265,0.313
				s-0.251,0.117-0.381,0.117c-0.157,0-0.261-0.012-0.313-0.039c-0.052-0.025-0.085-0.104-0.098-0.234l-0.157-1.605l-0.293-2.816
				c-0.092-1.123-0.202-2.102-0.333-2.936c-0.039-0.195-0.059-0.346-0.059-0.451c0-0.195,0.085-0.355,0.255-0.479
				c0.169-0.125,0.365-0.186,0.587-0.186c0.13,0,0.225,0.313,0.283,0.939c0.059,0.625,0.121,1.637,0.187,3.033l0.078,1.037
				c0.104,1.316,0.163,2.152,0.176,2.504c0.039-0.078,0.075-0.166,0.108-0.264s0.075-0.205,0.127-0.324
				c0.704-1.826,1.366-3.348,1.986-4.568s1.216-1.83,1.791-1.83c0.404,0,0.682,0.342,0.832,1.027
				c0.149,0.686,0.244,1.563,0.283,2.633c0.04,1.188,0.059,2.922,0.059,5.205C39.02,116.323,38.955,116.456,38.824,116.567z"/>
			<path stroke="#000000" stroke-miterlimit="10" d="M49.411,118.612c-0.405,0.836-0.881,1.514-1.429,2.035
				c-0.562,0.535-1.145,0.969-1.751,1.303c-0.607,0.332-1.132,0.498-1.576,0.498c-0.248,0-0.424-0.063-0.528-0.186
				c-0.104-0.125-0.156-0.271-0.156-0.441c0-0.156,0.293-0.338,0.881-0.547c0.887-0.287,1.709-0.77,2.465-1.449
				c0.587-0.521,1.018-1.115,1.292-1.779c0.274-0.666,0.411-1.344,0.411-2.035c0-0.783-0.049-1.5-0.146-2.152
				c-0.098-0.652-0.252-1.455-0.46-2.408c-0.235-1.004-0.398-1.859-0.489-2.563c-0.222,0.6-0.564,1.324-1.027,2.172
				c-0.463,0.848-1.015,1.662-1.654,2.445c-0.6,0.744-1.145,1.299-1.634,1.664s-0.962,0.547-1.418,0.547
				c-0.391,0-0.682-0.152-0.871-0.459c-0.189-0.307-0.284-0.727-0.284-1.262c0-0.887,0.274-1.932,0.822-3.131
				c0.548-1.201,1.232-2.232,2.055-3.092c0.822-0.861,1.631-1.293,2.427-1.293c0.273,0,0.485,0.098,0.636,0.295
				c0.149,0.195,0.225,0.43,0.225,0.703c0,0.354-0.071,0.529-0.215,0.529c-0.039,0-0.088-0.049-0.146-0.146
				c-0.059-0.098-0.127-0.186-0.206-0.266c-0.078-0.078-0.163-0.117-0.254-0.117c-0.666,0-1.341,0.373-2.025,1.115
				c-0.685,0.744-1.253,1.615-1.703,2.613c-0.45,0.998-0.675,1.816-0.675,2.455c0,0.354,0.049,0.607,0.146,0.764
				c0.098,0.156,0.251,0.234,0.46,0.234c0.313,0,0.691-0.182,1.135-0.547c0.443-0.365,0.972-0.939,1.585-1.723
				c0.548-0.691,1.047-1.496,1.497-2.416c0.45-0.92,0.792-1.797,1.027-2.633c0.026-0.078,0.069-0.143,0.127-0.195
				s0.127-0.078,0.205-0.078c0.118,0,0.238,0.035,0.362,0.107s0.186,0.146,0.186,0.225c0,0.053-0.01,0.107-0.029,0.166
				s-0.036,0.096-0.049,0.109c0.091,0.717,0.307,1.832,0.646,3.346c0.248,1.07,0.434,1.967,0.558,2.689
				c0.124,0.725,0.186,1.434,0.186,2.125C50.018,116.853,49.815,117.778,49.411,118.612z"/>
			<path stroke="#000000" stroke-miterlimit="10" d="M53.56,115.815c-0.17,0.078-0.359,0.117-0.568,0.117
				c-0.157,0-0.303-0.188-0.44-0.559c-0.137-0.371-0.206-0.936-0.206-1.693c0.013-1.473,0.036-3.254,0.069-5.342
				c0.033-2.086,0.062-3.658,0.088-4.715c0.013-0.379,0.081-0.73,0.205-1.059c0.124-0.324,0.343-0.488,0.655-0.488
				c0.104,0,0.173,0.055,0.206,0.166c0.032,0.111,0.049,0.322,0.049,0.637c0,0.014-0.003,0.055-0.01,0.127
				c-0.007,0.072-0.01,0.199-0.01,0.381c-0.235,3.432-0.353,6.777-0.353,10.039c0,0.418,0.095,0.861,0.284,1.33
				c0.188,0.471,0.283,0.719,0.283,0.744C53.813,115.632,53.729,115.735,53.56,115.815z"/>
			<path stroke="#000000" stroke-miterlimit="10" d="M57.121,104.073c0,0-0.216,0-0.646,0c-0.222,0-0.447-0.092-0.675-0.273
				c-0.229-0.184-0.342-0.334-0.342-0.451c0-0.143,0.068-0.279,0.206-0.41c0.137-0.131,0.277-0.195,0.421-0.195
				c0.195,0.064,0.358,0.17,0.489,0.313c0.104,0.104,0.222,0.242,0.352,0.41c0.13,0.17,0.196,0.275,0.196,0.314
				C57.121,103.976,57.121,104.073,57.121,104.073z M57.444,116.392c-0.111,0.072-0.238,0.102-0.381,0.088
				c-0.183-0.014-0.317-0.307-0.401-0.881c-0.085-0.574-0.173-1.662-0.265-3.268c-0.052-1.057-0.098-2.09-0.137-3.102
				s-0.065-1.791-0.078-2.338c0-0.145,0.022-0.252,0.068-0.324c0.046-0.07,0.134-0.107,0.264-0.107c0.3,0,0.489,0.125,0.568,0.373
				c0.078,0.248,0.117,0.723,0.117,1.428l-0.02,2.309c0,1.318,0.039,2.375,0.117,3.17c0,0.041,0.059,0.457,0.176,1.254
				c0.091,0.547,0.137,0.912,0.137,1.096C57.61,116.218,57.555,116.319,57.444,116.392z"/>
			<path stroke="#000000" stroke-miterlimit="10" d="M66.445,114.944c-0.463,0.527-1.073,0.951-1.83,1.271
				c-0.757,0.32-1.546,0.479-2.368,0.479c-0.562,0-0.939-0.051-1.135-0.156c-0.196-0.104-0.293-0.248-0.293-0.43
				c0-0.117,0.149-0.322,0.45-0.617c0.3-0.293,0.502-0.439,0.606-0.439c0.156,0,0.235,0.033,0.235,0.098
				c0,0.053-0.033,0.104-0.098,0.156s-0.098,0.098-0.098,0.137c0,0.053,0.081,0.105,0.245,0.156
				c0.163,0.053,0.362,0.078,0.597,0.078c0.548,0,1.099-0.1,1.653-0.303c0.555-0.201,1.008-0.467,1.36-0.793
				c0.352-0.326,0.528-0.672,0.528-1.037c0-0.352-0.111-0.633-0.333-0.842c-0.222-0.207-0.499-0.361-0.832-0.459
				s-0.89-0.238-1.673-0.42c-0.861-0.197-1.529-0.369-2.006-0.52s-0.858-0.34-1.145-0.566c-0.287-0.229-0.431-0.52-0.431-0.871
				c0-0.627,0.307-1.201,0.92-1.723s1.317-0.934,2.113-1.232c0.796-0.301,1.409-0.451,1.84-0.451c0.443,0,0.665,0.131,0.665,0.393
				c0,0.156-0.052,0.328-0.156,0.518c-0.105,0.189-0.262,0.283-0.47,0.283c-0.079,0-0.164-0.029-0.255-0.088
				s-0.183-0.088-0.273-0.088c-0.262,0-0.672,0.086-1.233,0.256c-0.561,0.168-1.069,0.424-1.526,0.762
				c-0.457,0.34-0.685,0.75-0.685,1.234c0,0.313,0.179,0.545,0.538,0.693c0.358,0.15,1.027,0.336,2.006,0.559
				c0.117,0.039,0.235,0.068,0.352,0.088c0.118,0.02,0.222,0.043,0.313,0.068c1.005,0.234,1.774,0.502,2.31,0.803
				c0.535,0.299,0.802,0.75,0.802,1.35C67.14,113.864,66.908,114.415,66.445,114.944z"/>
			<path stroke="#000000" stroke-miterlimit="10" d="M77.179,116.704c-0.104,0.111-0.241,0.168-0.411,0.168
				c-0.13,0-0.241-0.029-0.333-0.09c-0.091-0.059-0.137-0.139-0.137-0.244l0.039-1.35c0.065-1.605,0.098-2.916,0.098-3.934
				c0-1.486-0.104-2.527-0.313-3.121c-0.209-0.594-0.45-0.891-0.724-0.891c-0.613,0-1.383,0.949-2.309,2.848
				c-0.927,1.898-1.82,3.969-2.681,6.213c-0.065,0.182-0.154,0.359-0.265,0.529c-0.111,0.168-0.225,0.254-0.342,0.254
				c-0.287,0-0.431-0.092-0.431-0.273c0-0.797-0.033-2.287-0.098-4.473c-0.065-2.186-0.118-3.623-0.157-4.314
				c-0.117-2.336-0.229-3.777-0.333-4.324c-0.105-0.549-0.157-0.842-0.157-0.881c0-0.131,0.072-0.229,0.215-0.295
				c0.144-0.064,0.326-0.098,0.548-0.098c0.182,0,0.316,0.414,0.401,1.244c0.084,0.828,0.147,1.887,0.186,3.18l0.02,0.547
				c0.026,0.404,0.045,1.563,0.059,3.475c0.013,1.91,0.02,3.316,0.02,4.217c0.6-1.5,1.164-2.838,1.692-4.012s1.139-2.273,1.83-3.297
				c0.691-1.025,1.331-1.537,1.918-1.537c0.495,0,0.913,0.414,1.252,1.242c0.339,0.83,0.509,2.064,0.509,3.709
				c0,0.73,0.013,1.748,0.039,3.053l0.02,2.055C77.335,116.46,77.283,116.595,77.179,116.704z"/>
		</g>
	</g>
</g>
<g id="Grilla" opacity="0.2">
</g>
</svg>
