<?xml version="1.0" encoding="utf-8"?>
<!-- Generator: Adobe Illustrator 16.0.3, SVG Export Plug-In . SVG Version: 6.00 Build 0)  -->
<!DOCTYPE svg PUBLIC "-//W3C//DTD SVG 1.1//EN" "http://www.w3.org/Graphics/SVG/1.1/DTD/svg11.dtd">
<svg version="1.1" xmlns="http://www.w3.org/2000/svg" xmlns:xlink="http://www.w3.org/1999/xlink" x="0px" y="0px" width="114px"
	 height="111.444px" viewBox="0 0 114 111.444" enable-background="new 0 0 114 111.444" xml:space="preserve">
<g id="Capa_1">
	<g>
		<g>
			<circle fill="#005E55" cx="57.285" cy="48.982" r="45.044"/>
			<g>
				<path fill="#FFFFFF" stroke="#000000" stroke-width="4" stroke-miterlimit="10" d="M93.703,67.115
					c0,1.236-1.002,2.236-2.238,2.236h-70.3c-1.235,0-2.236-1-2.236-2.236V19.563c0-1.234,1.001-2.238,2.236-2.238h70.3
					c1.236,0,2.238,1.004,2.238,2.238V67.115z"/>
				
					<line fill="none" stroke="#000000" stroke-width="9" stroke-linecap="round" stroke-linejoin="round" stroke-miterlimit="10" x1="10.563" y1="81.09" x2="106.365" y2="81.09"/>
				<path stroke="#000000" stroke-width="4" stroke-miterlimit="10" d="M50.315,69.838h10.993v9.043h5.301
					c0,0,1.248,0.078,1.481,1.559H42.442c0,0,0.082-1.898,1.564-1.898l6.288,0.023L50.315,69.838z"/>
				<rect x="25.323" y="21.967" fill="#F7BD01" width="61.984" height="7.604"/>
				<rect x="25.323" y="56.992" fill="#F7BD01" width="61.984" height="7.602"/>
				<rect x="24.274" y="33.488" fill="#53C181" width="39.83" height="20.277"/>
				<rect x="70.589" y="33.488" fill="#53C181" width="15.636" height="20.277"/>
				<g>
					<path fill="#7AC947" stroke="#FFFFFF" stroke-miterlimit="10" d="M27.81,69.654v8.418c0,1.328-1.077,2.404-2.405,2.404h-7.493
						c-1.328,0-2.406-1.076-2.406-2.404v-8.418H27.81z"/>
					
						<path fill="none" stroke="#7AC947" stroke-width="3" stroke-linecap="round" stroke-linejoin="round" stroke-miterlimit="10" d="
						M15.552,77.795L15.552,77.795c-1.252,0-2.266-1.014-2.266-2.268V73.35c0-1.252,1.014-2.268,2.266-2.268l0,0"/>
				</g>
				<path fill="none" stroke="#913C3C" stroke-miterlimit="10" d="M104.63,62.293"/>
				<path fill="none" stroke="#913C3C" stroke-miterlimit="10" d="M104.63,65.668"/>
				<path fill="none" stroke="#913C3C" stroke-miterlimit="10" d="M104.774,58.572"/>
				<g>
					<g>
						<g>
							<path fill="#7AC947" d="M103.413,67.734c0.729,0.818,1.175,1.916,1.175,3.125c0,2.523-1.95,4.57-4.354,4.57
								s-4.354-2.047-4.354-4.57c0-1.209,0.446-2.307,1.175-3.125"/>
							<path fill="#7AC947" d="M103.146,61.947c0.885,0.742,1.441,1.818,1.441,3.016c0,1.072-0.446,2.049-1.176,2.773"/>
							<path fill="#7AC947" d="M97.055,67.736c-0.729-0.725-1.176-1.701-1.176-2.773c0-1.26,0.617-2.387,1.584-3.131"/>
							<path fill="#7AC947" d="M97.463,61.834c-0.49-0.641-0.782-1.447-0.782-2.326c0-2.08,1.643-3.766,3.67-3.766
								c2.027,0,3.67,1.686,3.67,3.766c0,0.93-0.328,1.783-0.874,2.439"/>
						</g>
						<polygon fill="#7AC947" points="103.333,67.734 97.09,67.734 97.463,61.834 103.146,61.834 						"/>
					</g>
					<polygon fill="#5B1A09" stroke="#FFFFFF" stroke-miterlimit="10" points="103.289,79.414 104.408,73.854 96.059,73.854 
						97.178,79.414 96.597,79.414 97.112,80.43 103.132,80.43 103.903,79.451 					"/>
				</g>
			</g>
		</g>
		<g>
			<path stroke="#000000" stroke-miterlimit="10" d="M33.992,100.174c-0.365,0.039-1.229,0.205-2.593,0.5
				c-1.363,0.293-2.364,0.525-3.004,0.693c0,0.287,0.003,0.891,0.01,1.811c0.007,0.92,0.023,1.699,0.049,2.338
				c0.013,0.248,0.042,0.523,0.088,0.822c0.045,0.301,0.075,0.516,0.088,0.646c0.078,0.469,0.117,0.75,0.117,0.842
				c0,0.143-0.068,0.355-0.206,0.635c-0.137,0.281-0.251,0.422-0.342,0.422c-0.092,0-0.176-0.047-0.255-0.137
				c-0.078-0.092-0.13-0.203-0.156-0.334c-0.131-0.586-0.222-1.539-0.274-2.857c-0.065-1.604-0.098-2.855-0.098-3.756
				c-0.078,0.012-0.205,0.035-0.381,0.068s-0.33,0.055-0.459,0.068c-0.131,0-0.268-0.033-0.411-0.098
				c-0.144-0.066-0.215-0.145-0.215-0.234c0-0.105,0.036-0.184,0.108-0.236c0.071-0.051,0.153-0.094,0.244-0.127
				c0.091-0.031,0.157-0.055,0.196-0.068c0.47-0.195,0.783-0.318,0.939-0.371l-0.156-4.365c-0.966,0.158-1.677,0.236-2.133,0.236
				c-0.509,0-0.861-0.125-1.057-0.373c-0.183-0.248-0.274-0.475-0.274-0.684c0-0.117,0.085-0.178,0.255-0.178
				c0.025,0,0.179,0.047,0.459,0.139c0.281,0.09,0.525,0.137,0.734,0.137c0.417,0,1.083-0.066,1.996-0.195
				c0-0.027,0.006-0.129,0.02-0.305c0.013-0.176,0.071-0.336,0.176-0.479c0.065-0.117,0.124-0.195,0.176-0.234
				c0.052-0.041,0.11-0.061,0.176-0.061c0.248,0,0.372,0.275,0.372,0.822c0.183-0.039,0.597-0.117,1.242-0.234
				c0.646-0.117,1.386-0.229,2.222-0.332c0.834-0.105,1.559-0.156,2.172-0.156c0.496,0,0.744,0.098,0.744,0.293
				c0,0.156-0.056,0.359-0.167,0.605c-0.111,0.248-0.238,0.373-0.382,0.373c-0.052,0-0.104-0.029-0.156-0.088
				c-0.052-0.059-0.091-0.096-0.117-0.107c-0.118-0.053-0.287-0.078-0.509-0.078c-0.405,0-1.21,0.084-2.417,0.254
				c-1.207,0.17-2.078,0.313-2.612,0.43l0.137,4.246c0.705-0.182,1.787-0.43,3.249-0.742c1.461-0.314,2.316-0.471,2.563-0.471
				c0.104,0,0.176,0.018,0.215,0.049c0.039,0.033,0.059,0.102,0.059,0.205C34.423,99.914,34.279,100.135,33.992,100.174z"/>
			<path stroke="#000000" stroke-miterlimit="10" d="M42.867,98.541c-0.164,0.148-0.303,0.225-0.42,0.225
				c-0.092,0-0.18-0.039-0.265-0.117s-0.18-0.189-0.284-0.334c-0.091-0.129-0.212-0.24-0.362-0.332
				c-0.15-0.092-0.304-0.137-0.46-0.137c-0.379,0-0.888,0.498-1.526,1.496c-0.64,0.998-1.266,2.254-1.879,3.768
				c0.013,0.301,0.036,0.678,0.068,1.135c0.033,0.457,0.056,0.797,0.069,1.018l0.059,0.783c0,0.184-0.039,0.342-0.117,0.479
				c-0.079,0.139-0.222,0.207-0.431,0.207c-0.222,0-0.365-0.297-0.43-0.891c-0.065-0.594-0.105-1.459-0.118-2.594
				c-0.013-0.287-0.023-0.697-0.029-1.232c-0.007-0.535-0.023-1.174-0.049-1.918c-0.039-1.121-0.059-1.924-0.059-2.406
				c0-0.301,0.183-0.451,0.548-0.451c0.222,0,0.355,0.096,0.401,0.285c0.046,0.188,0.068,0.551,0.068,1.086v3.111
				c0.392-1.006,0.815-1.873,1.272-2.604c0.456-0.73,0.903-1.287,1.34-1.674c0.438-0.385,0.825-0.576,1.165-0.576
				c0.286,0,0.561,0.064,0.821,0.195s0.47,0.297,0.626,0.5c0.157,0.201,0.235,0.395,0.235,0.576
				C43.111,98.256,43.029,98.391,42.867,98.541z"/>
			<path stroke="#000000" stroke-miterlimit="10" d="M50.724,104.088c-0.379,0.666-0.914,1.236-1.605,1.713
				c-0.692,0.477-1.481,0.713-2.368,0.713c-0.874,0-1.52-0.24-1.938-0.723s-0.626-1.084-0.626-1.801
				c0-0.627,0.114-1.402,0.342-2.328c0.228-0.928,0.551-1.756,0.969-2.486c0.026-0.051,0.133-0.244,0.323-0.576
				c0.189-0.334,0.401-0.588,0.636-0.764c0.235-0.176,0.483-0.264,0.744-0.264c0.117,0,0.225,0.029,0.323,0.088
				s0.147,0.133,0.147,0.225c0,0.025-0.036,0.088-0.108,0.186s-0.127,0.174-0.167,0.225c-0.443,0.535-0.802,1.064-1.076,1.586
				c-0.365,0.664-0.649,1.324-0.851,1.977c-0.203,0.652-0.303,1.363-0.303,2.133c0,1.031,0.626,1.545,1.878,1.545
				c0.587,0,1.131-0.168,1.634-0.508c0.502-0.34,0.903-0.754,1.203-1.242c0.3-0.49,0.45-0.938,0.45-1.342
				c0-0.455-0.15-0.854-0.45-1.193c-0.3-0.338-0.711-0.697-1.232-1.076c-0.34-0.248-0.587-0.449-0.744-0.605
				c-0.156-0.158-0.234-0.287-0.234-0.393c0-0.156,0.11-0.283,0.333-0.381c0.222-0.098,0.482-0.146,0.783-0.146
				c0.169,0,0.28,0.01,0.333,0.029s0.079,0.055,0.079,0.107c0,0.025-0.023,0.068-0.069,0.127s-0.068,0.107-0.068,0.146
				s0.13,0.17,0.391,0.391c0.522,0.432,0.959,0.869,1.312,1.313c0.352,0.443,0.528,0.965,0.528,1.564
				C51.291,102.836,51.102,103.422,50.724,104.088z"/>
			<path stroke="#000000" stroke-miterlimit="10" d="M59.393,106.916c-0.131,0.109-0.287,0.166-0.47,0.166
				c-0.131,0-0.242-0.029-0.333-0.088c-0.091-0.059-0.137-0.141-0.137-0.244c0-0.535,0.039-1.363,0.117-2.486
				c0.078-1.199,0.118-2.197,0.118-2.994c0-0.77-0.023-1.398-0.069-1.889c-0.046-0.488-0.153-0.732-0.322-0.732
				c-0.444,0-0.93,0.551-1.458,1.652c-0.528,1.104-1.132,2.555-1.811,4.355l-0.293,0.781c-0.053,0.131-0.141,0.236-0.265,0.314
				s-0.251,0.117-0.382,0.117c-0.156,0-0.261-0.014-0.313-0.039c-0.053-0.027-0.085-0.105-0.098-0.236l-0.157-1.604l-0.293-2.818
				c-0.092-1.121-0.203-2.1-0.333-2.936c-0.039-0.195-0.059-0.346-0.059-0.449c0-0.195,0.084-0.355,0.254-0.48
				c0.169-0.123,0.365-0.186,0.587-0.186c0.13,0,0.225,0.313,0.284,0.939s0.121,1.637,0.186,3.033l0.079,1.037
				c0.104,1.318,0.163,2.152,0.176,2.506c0.039-0.08,0.075-0.168,0.107-0.266c0.033-0.098,0.075-0.205,0.127-0.322
				c0.705-1.826,1.367-3.35,1.986-4.57c0.62-1.219,1.217-1.828,1.791-1.828c0.404,0,0.682,0.342,0.832,1.027
				c0.15,0.684,0.245,1.563,0.284,2.631c0.039,1.188,0.059,2.924,0.059,5.205C59.588,106.672,59.522,106.805,59.393,106.916z"/>
			<path stroke="#000000" stroke-miterlimit="10" d="M70.263,98.785c-0.189,0.117-0.532,0.209-1.027,0.273
				c-1.2,0.209-1.872,0.326-2.016,0.352l-1.272,0.217c0,0.678,0.01,1.389,0.029,2.133c0.02,0.742,0.049,1.396,0.088,1.957
				c0.052,0.756,0.143,1.336,0.273,1.74c0.131,0.404,0.202,0.633,0.216,0.686c0,0.131-0.082,0.252-0.245,0.361
				c-0.163,0.111-0.316,0.168-0.46,0.168c-0.078,0-0.144-0.023-0.195-0.07c-0.052-0.045-0.098-0.119-0.137-0.225
				c-0.079-0.182-0.154-0.521-0.226-1.018c-0.071-0.496-0.127-1.043-0.166-1.643c-0.039-0.535-0.068-1.158-0.088-1.869
				s-0.029-1.4-0.029-2.064c-0.731,0.117-1.481,0.26-2.251,0.43c-0.691,0.145-1.103,0.215-1.232,0.215
				c-0.157,0-0.304-0.045-0.44-0.137c-0.137-0.09-0.206-0.215-0.206-0.371c0-0.17,0.059-0.281,0.176-0.332
				c0.117-0.053,0.313-0.08,0.587-0.08c0.196,0,0.482-0.035,0.861-0.107c0.378-0.07,0.619-0.119,0.724-0.146
				c0.874-0.17,1.468-0.279,1.781-0.332c0-0.273-0.014-0.633-0.04-1.076c-0.026-0.6-0.039-1.057-0.039-1.371
				c0-0.508,0.016-0.902,0.049-1.184c0.033-0.279,0.094-0.531,0.186-0.752c0.104-0.262,0.3-0.393,0.587-0.393
				c0.117,0,0.196,0.02,0.235,0.059c0.04,0.039,0.059,0.111,0.059,0.215c0,0.08-0.033,0.307-0.098,0.686
				c-0.065,0.379-0.098,0.881-0.098,1.508c0,0.482,0.013,1.023,0.04,1.623l0.02,0.529c0.587-0.092,1.748-0.334,3.483-0.725
				c0.104-0.025,0.192-0.117,0.265-0.273c0.071-0.156,0.146-0.234,0.225-0.234c0.144,0,0.291,0.08,0.44,0.244
				c0.15,0.162,0.225,0.33,0.225,0.498C70.546,98.498,70.452,98.668,70.263,98.785z"/>
			<path stroke="#000000" stroke-miterlimit="10" d="M79.078,101.682c0,0.234-0.173,0.75-0.519,1.545
				c-0.346,0.797-0.868,1.533-1.565,2.211c-0.698,0.68-1.556,1.018-2.573,1.018c-0.835,0-1.533-0.26-2.094-0.781
				c-0.562-0.523-0.842-1.324-0.842-2.408c0-1.018,0.235-2.025,0.705-3.023s1.083-1.813,1.839-2.445s1.539-0.949,2.349-0.949
				c0.482,0,0.89,0.107,1.223,0.322c0.333,0.215,0.499,0.525,0.499,0.93c0,0.457-0.258,0.9-0.772,1.33
				c-0.516,0.432-1.185,0.811-2.006,1.137c-0.822,0.326-1.67,0.561-2.544,0.703c-0.157,0.602-0.235,1.188-0.235,1.762
				c0,0.756,0.18,1.344,0.538,1.762c0.359,0.418,0.871,0.625,1.536,0.625c1.005,0,1.82-0.357,2.446-1.076
				c0.626-0.717,1.148-1.525,1.565-2.426c0.026-0.053,0.072-0.154,0.137-0.303c0.065-0.15,0.124-0.227,0.176-0.227
				C79.032,101.387,79.078,101.484,79.078,101.682z M76.896,97.826c-0.216-0.117-0.467-0.176-0.754-0.176
				c-0.496,0-0.972,0.162-1.428,0.488s-0.838,0.719-1.145,1.174c-0.307,0.457-0.506,0.861-0.597,1.213
				c0.6-0.064,1.233-0.234,1.898-0.508c0.665-0.273,1.223-0.574,1.673-0.9s0.675-0.594,0.675-0.803
				C77.219,98.107,77.111,97.943,76.896,97.826z"/>
			<path stroke="#000000" stroke-miterlimit="10" d="M87.63,92.992c0,0.262-0.014,0.773-0.039,1.537
				c-0.026,0.762-0.039,1.529-0.039,2.299c0,1.486,0.032,3.004,0.098,4.549c0.065,1.547,0.117,2.561,0.156,3.043
				c0,0.078,0.007,0.164,0.02,0.256c0.013,0.09,0.026,0.176,0.039,0.254c0.052,0.365,0.079,0.586,0.079,0.664
				c0,0.131-0.095,0.256-0.284,0.373c-0.189,0.117-0.336,0.176-0.44,0.176c-0.144,0-0.238-0.055-0.284-0.166
				c-0.046-0.111-0.069-0.264-0.069-0.461c0-0.717,0.02-1.467,0.059-2.25l0.02-1.096c0-0.365-0.007-0.844-0.02-1.438
				c-0.013-0.594-0.033-1.094-0.059-1.498c-0.665,2.141-1.418,3.91-2.26,5.313c-0.842,1.404-1.752,2.105-2.73,2.105
				c-0.444,0-0.819-0.209-1.125-0.627s-0.46-1.018-0.46-1.801c0-1.029,0.349-2.152,1.047-3.365c0.698-1.213,1.494-2.258,2.387-3.131
				c0.894-0.875,1.556-1.313,1.986-1.313c0.417,0,0.626,0.139,0.626,0.412c0,0.182-0.062,0.395-0.186,0.635
				c-0.124,0.242-0.261,0.461-0.411,0.656c-0.15,0.195-0.238,0.293-0.264,0.293c-0.026,0-0.056-0.01-0.088-0.029
				c-0.033-0.02-0.049-0.041-0.049-0.068c0-0.064,0.033-0.176,0.098-0.332c0.065-0.156,0.098-0.262,0.098-0.313
				c0-0.066-0.007-0.111-0.02-0.137c-0.014-0.027-0.053-0.041-0.118-0.041c-0.274,0-0.767,0.377-1.478,1.127
				c-0.711,0.75-1.347,1.641-1.908,2.67c-0.562,1.031-0.842,1.99-0.842,2.877c0,0.313,0.065,0.607,0.196,0.881
				s0.345,0.41,0.646,0.41c0.952,0,1.836-0.805,2.651-2.416s1.523-3.441,2.123-5.488l-0.039-1.645
				c-0.039-1.449-0.059-2.219-0.059-2.309c0-0.783,0.032-1.344,0.098-1.684c0.026-0.131,0.056-0.223,0.088-0.273
				c0.033-0.053,0.102-0.078,0.206-0.078c0.13,0,0.261,0.041,0.391,0.127c0.13,0.084,0.196,0.199,0.196,0.342L87.63,92.992z"/>
		</g>
	</g>
</g>
<g id="Grilla" opacity="0.2">
</g>
</svg>
