<?xml version="1.0" encoding="utf-8"?>
<!-- Generator: Adobe Illustrator 16.0.3, SVG Export Plug-In . SVG Version: 6.00 Build 0)  -->
<!DOCTYPE svg PUBLIC "-//W3C//DTD SVG 1.1//EN" "http://www.w3.org/Graphics/SVG/1.1/DTD/svg11.dtd">
<svg version="1.1" xmlns="http://www.w3.org/2000/svg" xmlns:xlink="http://www.w3.org/1999/xlink" x="0px" y="0px" width="99.43px"
	 height="109.662px" viewBox="0 0 99.43 109.662" enable-background="new 0 0 99.43 109.662" xml:space="preserve">
<g id="Capa_1">
	<g>
		<g>
			<circle fill="#005E55" cx="51.212" cy="48.551" r="45.044"/>
			<g>
				<g>
					<path fill="#A8CD5C" stroke="#000000" stroke-width="2" stroke-miterlimit="10" d="M5.446,25.082v37.225
						c0,3.586,8.382,6.494,18.723,6.494s18.313-2.504,18.313-6.09l-0.357-37.074"/>
					<g>
						<path stroke="#000000" stroke-miterlimit="10" d="M27.908,38.117c0,0.441-0.358,0.801-0.801,0.801h-6.504
							c-0.442,0-0.8-0.359-0.8-0.801l0,0c0-0.441,0.358-0.801,0.8-0.801h6.504C27.55,37.316,27.908,37.676,27.908,38.117
							L27.908,38.117z"/>
						<path stroke="#000000" stroke-miterlimit="10" d="M27.813,49.732c0,0.441-0.358,0.801-0.801,0.801h-6.504
							c-0.442,0-0.801-0.359-0.801-0.801l0,0c0-0.441,0.358-0.801,0.801-0.801h6.504C27.454,48.932,27.813,49.291,27.813,49.732
							L27.813,49.732z"/>
						<path stroke="#000000" stroke-miterlimit="10" d="M27.813,62.541c0,0.443-0.358,0.803-0.801,0.803h-6.504
							c-0.442,0-0.801-0.359-0.801-0.803l0,0c0-0.441,0.358-0.799,0.801-0.799h6.504C27.454,61.742,27.813,62.1,27.813,62.541
							L27.813,62.541z"/>
					</g>
					
						<ellipse fill="#A8CD5C" stroke="#000000" stroke-width="2" stroke-miterlimit="10" cx="23.736" cy="24.355" rx="18.746" ry="6.494"/>
					<path fill="none" stroke="#000000" stroke-width="2" stroke-miterlimit="10" d="M42.482,37.342
						c0,3.584-8.381,6.492-18.722,6.492c-10.34,0-18.313-2.908-18.313-6.492"/>
					<path fill="none" stroke="#000000" stroke-width="2" stroke-miterlimit="10" d="M42.482,49.732
						c0,3.586-8.381,6.492-18.722,6.492c-10.34,0-17.904-2.906-17.904-6.492"/>
				</g>
				<g>
					<path fill="#80D8C9" stroke="#000000" stroke-width="2" stroke-miterlimit="10" d="M61.031,25.381v37.227
						c0,3.584,8.382,6.492,18.722,6.492c10.341,0,18.313-2.504,18.313-6.09L97.71,25.936"/>
					<g>
						<path stroke="#000000" stroke-miterlimit="10" d="M83.493,38.416c0,0.443-0.358,0.801-0.8,0.801h-6.504
							c-0.442,0-0.801-0.357-0.801-0.801l0,0c0-0.441,0.359-0.801,0.801-0.801h6.504C83.135,37.615,83.493,37.975,83.493,38.416
							L83.493,38.416z"/>
						<path stroke="#000000" stroke-miterlimit="10" d="M83.397,50.031c0,0.443-0.358,0.801-0.8,0.801h-6.504
							c-0.442,0-0.801-0.357-0.801-0.801l0,0c0-0.441,0.358-0.801,0.801-0.801h6.504C83.039,49.23,83.397,49.59,83.397,50.031
							L83.397,50.031z"/>
						<path stroke="#000000" stroke-miterlimit="10" d="M83.397,62.84c0,0.443-0.358,0.803-0.8,0.803h-6.504
							c-0.442,0-0.801-0.359-0.801-0.803l0,0c0-0.441,0.358-0.799,0.801-0.799h6.504C83.039,62.041,83.397,62.398,83.397,62.84
							L83.397,62.84z"/>
					</g>
					
						<ellipse fill="#80D8C9" stroke="#000000" stroke-width="2" stroke-miterlimit="10" cx="79.321" cy="24.656" rx="18.745" ry="6.492"/>
					<path fill="none" stroke="#000000" stroke-width="2" stroke-miterlimit="10" d="M98.066,37.641
						c0,3.584-8.381,6.492-18.722,6.492c-10.34,0-18.313-2.908-18.313-6.492"/>
					<path fill="none" stroke="#000000" stroke-width="2" stroke-miterlimit="10" d="M98.066,50.031
						c0,3.586-8.381,6.492-18.722,6.492c-10.34,0-17.904-2.906-17.904-6.492"/>
				</g>
				<g>
					<path fill="#F7BD01" stroke="#000000" stroke-width="2" stroke-miterlimit="10" d="M34.062,42.156v37.225
						c0,3.586,8.383,6.492,18.723,6.492c10.341,0,18.313-2.504,18.313-6.09L70.74,42.709"/>
					<g>
						<path stroke="#000000" stroke-miterlimit="10" d="M56.524,55.191c0,0.441-0.358,0.801-0.8,0.801h-6.505
							c-0.442,0-0.801-0.359-0.801-0.801l0,0c0-0.443,0.358-0.801,0.801-0.801h6.505C56.166,54.391,56.524,54.748,56.524,55.191
							L56.524,55.191z"/>
						<path stroke="#000000" stroke-miterlimit="10" d="M56.428,66.807c0,0.441-0.358,0.801-0.8,0.801h-6.504
							c-0.442,0-0.801-0.359-0.801-0.801l0,0c0-0.443,0.358-0.801,0.801-0.801h6.504C56.07,66.006,56.428,66.363,56.428,66.807
							L56.428,66.807z"/>
						<path stroke="#000000" stroke-miterlimit="10" d="M56.428,79.615c0,0.441-0.358,0.801-0.8,0.801h-6.504
							c-0.442,0-0.801-0.359-0.801-0.801l0,0c0-0.443,0.358-0.801,0.801-0.801h6.504C56.07,78.814,56.428,79.172,56.428,79.615
							L56.428,79.615z"/>
					</g>
					
						<ellipse fill="#F7BD01" stroke="#000000" stroke-width="2" stroke-miterlimit="10" cx="52.353" cy="41.43" rx="18.745" ry="6.492"/>
					<path fill="none" stroke="#000000" stroke-width="2" stroke-miterlimit="10" d="M71.097,54.414
						c0,3.586-8.381,6.492-18.722,6.492c-10.34,0-18.313-2.906-18.313-6.492"/>
					<path fill="none" stroke="#000000" stroke-width="2" stroke-miterlimit="10" d="M71.097,66.807c0,3.584-8.381,6.49-18.722,6.49
						c-10.34,0-17.904-2.906-17.904-6.49"/>
				</g>
			</g>
		</g>
		<g>
			<path stroke="#000000" stroke-miterlimit="10" d="M28.704,101.955c-0.457,0.633-1.083,1.347-1.878,2.143
				c-0.587,0.587-1.279,1.161-2.074,1.722c-0.522,0.365-1.034,0.679-1.536,0.939c-0.503,0.261-0.884,0.392-1.145,0.392
				c-0.13,0-0.245-0.036-0.342-0.107c-0.098-0.072-0.147-0.18-0.147-0.323c0-0.209,0.079-0.388,0.235-0.538
				c0.156-0.149,0.365-0.271,0.626-0.362c0.13-0.052,0.313-0.104,0.548-0.156c0.3-0.052,0.568-0.137,0.803-0.254
				c0.443-0.222,0.962-0.564,1.556-1.027s1.06-0.878,1.399-1.243c0.561-0.6,0.988-1.132,1.281-1.595
				c0.294-0.463,0.44-0.942,0.44-1.438c0-0.273-0.13-0.473-0.392-0.597c-0.261-0.124-0.58-0.186-0.958-0.186
				c-0.965,0-1.846,0.169-2.642,0.509c-0.352,0.156-0.594,0.268-0.724,0.332c-0.47,0.209-0.854,0.372-1.155,0.489
				c-0.339,0.131-0.666,0.245-0.979,0.343s-0.522,0.166-0.626,0.205l0.039,0.744c0,0.195,0.01,0.509,0.029,0.939
				c0.02,0.43,0.029,0.835,0.029,1.213c0,0.9-0.065,1.631-0.196,2.191c-0.052,0.183-0.111,0.313-0.176,0.392
				c-0.065,0.078-0.189,0.117-0.372,0.117c-0.117,0-0.229-0.039-0.333-0.117c-0.105-0.078-0.157-0.176-0.157-0.293
				c0-0.04,0.059-0.262,0.176-0.666s0.176-0.763,0.176-1.076c0-1.018-0.046-2.315-0.137-3.895l-0.059-0.899
				c-0.079-0.861-0.118-1.54-0.118-2.035c0-0.379,0.026-0.858,0.078-1.438c0.052-0.581,0.092-0.962,0.118-1.146
				c-0.496,0.131-1.128,0.366-1.898,0.705c-0.222,0.091-0.509,0.254-0.861,0.489c-0.326,0.209-0.548,0.313-0.665,0.313
				c-0.104,0-0.196-0.045-0.274-0.137c-0.078-0.091-0.117-0.202-0.117-0.332c0-0.248,0.438-0.568,1.312-0.959
				c0.874-0.392,1.826-0.737,2.856-1.037c0.927-0.274,1.748-0.477,2.466-0.607c0.718-0.13,1.455-0.195,2.211-0.195
				c0.691,0,1.269,0.134,1.732,0.401c0.463,0.268,0.694,0.643,0.694,1.125c0,1.148-0.626,2.336-1.878,3.562
				c0.561-0.078,1.07-0.117,1.527-0.117c0.6,0,1.115,0.124,1.546,0.372c0.43,0.247,0.646,0.665,0.646,1.252
				C29.389,100.692,29.16,101.322,28.704,101.955z M26.179,94.538c-0.3-0.163-0.705-0.244-1.213-0.244
				c-0.535,0-1.207,0.062-2.016,0.186c-0.809,0.124-1.435,0.258-1.878,0.401c-0.222,0.887-0.333,1.631-0.333,2.23
				c0,0.849,0.039,1.918,0.117,3.21c0.13-0.014,0.343-0.065,0.636-0.157c0.294-0.091,0.564-0.188,0.813-0.293
				c1.239-0.522,2.27-1.2,3.092-2.035c0.822-0.835,1.233-1.696,1.233-2.583C26.629,94.939,26.479,94.701,26.179,94.538z"/>
			<path stroke="#000000" stroke-miterlimit="10" d="M39.506,105.164c0.091,0.098,0.137,0.18,0.137,0.245
				c0,0.156-0.065,0.336-0.195,0.538c-0.131,0.202-0.262,0.303-0.392,0.303c-0.222,0-0.392-0.137-0.509-0.411
				c-0.117-0.273-0.176-0.593-0.176-0.958c0-0.313,0.02-1.253,0.059-2.818l0.02-0.744c0-0.3-0.079-0.515-0.235-0.646
				c-0.587,0.992-1.135,1.853-1.644,2.583c-0.509,0.731-1.154,1.419-1.938,2.064c-0.783,0.646-1.604,0.969-2.466,0.969
				c-0.417,0-0.74-0.13-0.969-0.391c-0.228-0.262-0.342-0.601-0.342-1.018c0-0.522,0.234-1.236,0.704-2.144
				c0.47-0.906,1.069-1.826,1.801-2.759c0.73-0.933,1.461-1.699,2.191-2.3c0.482-0.391,0.867-0.655,1.154-0.792
				c0.287-0.138,0.542-0.206,0.764-0.206c0.208,0,0.424,0.065,0.646,0.196c0.222,0.13,0.411,0.313,0.567,0.548
				c0.157,0.234,0.235,0.502,0.235,0.802c0,0.405-0.111,0.79-0.333,1.155l0.333-0.099c0.144,0,0.228,0.177,0.254,0.529
				c0.013,0.208,0.029,0.633,0.049,1.271c0.02,0.64,0.036,1.168,0.049,1.585c0.013,0.431,0.026,0.849,0.04,1.253
				c0.013,0.404,0.026,0.724,0.039,0.959C39.362,104.972,39.414,105.066,39.506,105.164z M34.477,104.45
				c0.652-0.521,1.236-1.146,1.751-1.869c0.516-0.724,1.086-1.614,1.713-2.671c0.156-0.392,0.234-0.815,0.234-1.272
				c0-0.273-0.082-0.512-0.244-0.714c-0.164-0.202-0.382-0.304-0.656-0.304c-0.326,0-0.743,0.223-1.252,0.666
				c-0.587,0.495-1.207,1.157-1.859,1.985c-0.652,0.829-1.193,1.647-1.624,2.456c-0.431,0.81-0.646,1.448-0.646,1.918
				c0,0.392,0.183,0.587,0.548,0.587C33.146,105.232,33.824,104.972,34.477,104.45z"/>
			<path stroke="#000000" stroke-miterlimit="10" d="M47.128,102.552c-0.268,0.404-0.539,0.77-0.813,1.096
				c-0.679,0.822-1.289,1.455-1.83,1.898c-0.542,0.443-1.106,0.665-1.693,0.665c-0.496,0-0.903-0.215-1.223-0.646
				c-0.32-0.431-0.479-0.927-0.479-1.487c0-0.835,0.222-1.892,0.665-3.17s1.004-2.388,1.683-3.327
				c0.679-0.939,1.357-1.409,2.035-1.409c0.287,0,0.535,0.104,0.744,0.313c0.117,0.117,0.228,0.273,0.333,0.47
				c0.104,0.195,0.157,0.372,0.157,0.528c0,0.222-0.029,0.479-0.088,0.772c-0.059,0.294-0.121,0.44-0.187,0.44
				c-0.13,0-0.215-0.071-0.254-0.215s-0.065-0.326-0.079-0.548c-0.039-0.339-0.078-0.564-0.118-0.676
				c-0.039-0.11-0.098-0.166-0.176-0.166c-0.613,0-1.207,0.428-1.781,1.282c-0.574,0.854-1.044,1.846-1.409,2.975
				c-0.366,1.128-0.548,1.999-0.548,2.612c0,0.86,0.286,1.291,0.86,1.291c0.418,0,0.799-0.104,1.145-0.313
				c0.346-0.209,0.708-0.502,1.086-0.881c0.704-0.718,1.252-1.337,1.644-1.859c0.026-0.039,0.101-0.14,0.225-0.303
				c0.124-0.163,0.212-0.245,0.264-0.245c0.156,0,0.235,0.059,0.235,0.177C47.529,101.906,47.395,102.147,47.128,102.552z"/>
			<path stroke="#000000" stroke-miterlimit="10" d="M57.499,98.275c-0.176,0.203-0.343,0.304-0.499,0.304
				c-0.104,0-0.222-0.056-0.353-0.166c-0.13-0.111-0.222-0.167-0.274-0.167c-0.352,0-0.914,0.242-1.683,0.725
				s-1.559,1.05-2.368,1.702s-1.428,1.207-1.859,1.664l0.02,0.352c0.991,0.457,2.094,0.946,3.307,1.468
				c1.213,0.522,2.055,0.829,2.524,0.92c0.182,0.026,0.365,0.046,0.548,0.059c0.183,0.013,0.313,0.02,0.391,0.02
				c0.118,0,0.216,0.007,0.294,0.02c0.078,0.014,0.117,0.039,0.117,0.078c0,0.157-0.121,0.313-0.362,0.47
				c-0.242,0.156-0.604,0.235-1.086,0.235c-0.43,0-1.015-0.16-1.751-0.479c-0.737-0.319-1.608-0.74-2.612-1.263l-1.233-0.606
				c0.17,1.657,0.255,2.57,0.255,2.739c0,0.144-0.072,0.262-0.216,0.353s-0.3,0.137-0.47,0.137c-0.104,0-0.189-0.156-0.254-0.47
				c-0.065-0.313-0.144-0.933-0.235-1.858l-0.137-1.194c-0.156-0.064-0.293-0.159-0.411-0.283c-0.117-0.124-0.176-0.238-0.176-0.343
				c0-0.156,0.13-0.339,0.392-0.548c-0.014-0.704-0.049-1.709-0.108-3.014c-0.059-1.305-0.101-2.257-0.127-2.856l-0.098-2.721
				c0-0.365,0.046-0.678,0.137-0.939c0.092-0.261,0.294-0.391,0.607-0.391c0.118,0,0.196,0.022,0.235,0.068s0.059,0.134,0.059,0.264
				c0,0.601,0.042,1.993,0.127,4.178c0.085,2.186,0.153,3.741,0.206,4.668c2.909-2.766,5.035-4.149,6.379-4.149
				c0.274,0,0.506,0.05,0.695,0.147c0.188,0.098,0.283,0.199,0.283,0.303C57.763,97.882,57.675,98.074,57.499,98.275z"/>
			<path stroke="#000000" stroke-miterlimit="10" d="M65.864,101.437c0,0.234-0.173,0.75-0.519,1.546s-0.868,1.533-1.565,2.211
				c-0.698,0.679-1.556,1.018-2.573,1.018c-0.835,0-1.533-0.261-2.094-0.782c-0.562-0.522-0.842-1.324-0.842-2.407
				c0-1.018,0.235-2.025,0.705-3.023s1.083-1.813,1.839-2.446s1.539-0.949,2.349-0.949c0.482,0,0.89,0.107,1.223,0.323
				c0.333,0.215,0.499,0.525,0.499,0.93c0,0.456-0.258,0.899-0.772,1.33c-0.516,0.431-1.185,0.81-2.006,1.136
				c-0.822,0.326-1.67,0.561-2.544,0.704c-0.157,0.601-0.235,1.188-0.235,1.761c0,0.757,0.18,1.344,0.538,1.762
				c0.359,0.418,0.871,0.626,1.536,0.626c1.005,0,1.82-0.358,2.446-1.076s1.148-1.526,1.565-2.427
				c0.026-0.052,0.072-0.153,0.137-0.303c0.065-0.15,0.124-0.226,0.176-0.226C65.818,101.143,65.864,101.24,65.864,101.437z
				 M63.683,97.581c-0.216-0.117-0.467-0.176-0.754-0.176c-0.496,0-0.972,0.163-1.428,0.489s-0.838,0.718-1.145,1.174
				c-0.307,0.457-0.506,0.861-0.597,1.213c0.6-0.064,1.233-0.234,1.898-0.509c0.665-0.273,1.223-0.573,1.673-0.899
				s0.675-0.594,0.675-0.803C64.005,97.862,63.897,97.698,63.683,97.581z"/>
			<path stroke="#000000" stroke-miterlimit="10" d="M73.927,106.671c-0.131,0.11-0.287,0.166-0.47,0.166
				c-0.131,0-0.242-0.029-0.333-0.088c-0.091-0.059-0.137-0.14-0.137-0.244c0-0.535,0.039-1.363,0.117-2.485
				c0.078-1.2,0.118-2.198,0.118-2.994c0-0.77-0.023-1.399-0.069-1.889S73,98.403,72.831,98.403c-0.444,0-0.93,0.551-1.458,1.653
				s-1.132,2.554-1.811,4.354l-0.293,0.782c-0.053,0.131-0.141,0.235-0.265,0.313s-0.251,0.117-0.382,0.117
				c-0.156,0-0.261-0.013-0.313-0.039c-0.053-0.026-0.085-0.104-0.098-0.235l-0.157-1.604l-0.293-2.817
				c-0.092-1.122-0.203-2.101-0.333-2.936c-0.039-0.195-0.059-0.346-0.059-0.45c0-0.195,0.084-0.355,0.254-0.479
				c0.169-0.124,0.365-0.186,0.587-0.186c0.13,0,0.225,0.313,0.284,0.939c0.059,0.626,0.121,1.637,0.186,3.033l0.079,1.037
				c0.104,1.317,0.163,2.152,0.176,2.505c0.039-0.079,0.075-0.167,0.107-0.265c0.033-0.098,0.075-0.205,0.127-0.323
				c0.705-1.826,1.367-3.349,1.986-4.569c0.62-1.22,1.217-1.829,1.791-1.829c0.404,0,0.682,0.342,0.832,1.027
				c0.15,0.685,0.245,1.563,0.284,2.632c0.039,1.188,0.059,2.923,0.059,5.205C74.122,106.427,74.057,106.56,73.927,106.671z"/>
			<path stroke="#000000" stroke-miterlimit="10" d="M83.417,92.748c0,0.261-0.013,0.772-0.039,1.536
				c-0.026,0.763-0.039,1.529-0.039,2.299c0,1.487,0.032,3.004,0.098,4.55s0.118,2.561,0.157,3.043c0,0.078,0.006,0.163,0.02,0.255
				c0.013,0.091,0.025,0.176,0.039,0.254c0.052,0.365,0.078,0.587,0.078,0.665c0,0.131-0.095,0.255-0.284,0.372
				c-0.189,0.117-0.336,0.177-0.44,0.177c-0.144,0-0.238-0.056-0.284-0.167c-0.046-0.11-0.068-0.264-0.068-0.46
				c0-0.717,0.02-1.468,0.059-2.25l0.02-1.096c0-0.365-0.007-0.845-0.02-1.438c-0.013-0.594-0.033-1.093-0.059-1.497
				c-0.666,2.14-1.419,3.91-2.261,5.313c-0.841,1.403-1.751,2.104-2.729,2.104c-0.443,0-0.819-0.209-1.125-0.627
				c-0.307-0.417-0.46-1.018-0.46-1.8c0-1.03,0.349-2.152,1.047-3.366c0.698-1.213,1.494-2.257,2.387-3.131s1.556-1.312,1.986-1.312
				c0.417,0,0.626,0.138,0.626,0.411c0,0.183-0.063,0.395-0.186,0.636c-0.125,0.242-0.261,0.46-0.411,0.656
				c-0.15,0.195-0.238,0.293-0.264,0.293s-0.056-0.01-0.088-0.029c-0.033-0.02-0.049-0.042-0.049-0.068
				c0-0.065,0.032-0.176,0.098-0.333c0.065-0.156,0.098-0.261,0.098-0.313c0-0.065-0.007-0.111-0.02-0.137
				c-0.013-0.026-0.052-0.04-0.117-0.04c-0.274,0-0.767,0.376-1.478,1.126s-1.347,1.641-1.908,2.671
				c-0.561,1.03-0.841,1.989-0.841,2.877c0,0.313,0.065,0.606,0.196,0.88c0.13,0.274,0.346,0.411,0.646,0.411
				c0.952,0,1.836-0.806,2.652-2.417c0.815-1.61,1.523-3.44,2.124-5.488l-0.04-1.645c-0.039-1.448-0.059-2.218-0.059-2.309
				c0-0.783,0.033-1.344,0.098-1.684c0.025-0.13,0.055-0.222,0.088-0.273c0.032-0.052,0.101-0.078,0.205-0.078
				c0.13,0,0.261,0.042,0.392,0.127c0.13,0.085,0.196,0.199,0.196,0.343L83.417,92.748z"/>
		</g>
	</g>
</g>
<g id="Grilla" opacity="0.2">
</g>
</svg>
